# Rhino

mtllib dk_map.mtl
g object_1
usemtl Default
v -0.602413535118103 -0.08173993974924088 0.7098314166069031
v -0.602413535118103 -0.1341008096933365 0.7098314166069031
v -0.602413535118103 -0.08173993974924088 -0.7112770676612854
v -0.602413535118103 -0.1341008096933365 -0.7112770676612854
vt 0 0
vt 0 1
vt 1 0
vt 1 1
vn -1 0 0
vn -1 0 0
vn -1 0 0
vn -1 0 0
f 4/4/4 2/2/2 1/1/1 3/3/3
g object_2
usemtl Default
v -0.602413535118103 -0.08173993974924088 -0.7112770676612854
v -0.602413535118103 -0.1341008096933365 -0.7112770676612854
v 0.8170615434646606 -0.08173993974924088 -0.7112770676612854
v 0.8170615434646606 -0.1341008096933365 -0.7112770676612854
vt 0 0
vt 0 1
vt 1 0
vt 1 1
vn 0 0 -1
vn 0 0 -1
vn 0 0 -1
vn 0 0 -1
f 8/8/8 6/6/6 5/5/5 7/7/7
g object_3
usemtl Default
v 0.8170615434646606 -0.08173993974924088 -0.7112770676612854
v 0.8170615434646606 -0.1341008096933365 -0.7112770676612854
v 0.8170615434646606 -0.08173993974924088 0.7098314166069031
v 0.8170615434646606 -0.1341008096933365 0.7098314166069031
vt 0 0
vt 0 1
vt 1 0
vt 1 1
vn 1 0 0
vn 1 0 0
vn 1 0 0
vn 1 0 0
f 12/12/12 10/10/10 9/9/9 11/11/11
g object_4
usemtl Default
v 0.8170615434646606 -0.08173993974924088 0.7098314166069031
v 0.8170615434646606 -0.1341008096933365 0.7098314166069031
v -0.602413535118103 -0.08173993974924088 0.7098314166069031
v -0.602413535118103 -0.1341008096933365 0.7098314166069031
vt 0 0
vt 0 1
vt 1 0
vt 1 1
vn 0 0 1
vn 0 0 1
vn 0 0 1
vn 0 0 1
f 16/16/16 14/14/14 13/13/13 15/15/15
g object_5
usemtl Map of Denmark
v -0.602413535118103 -0.08173993974924088 0.7098314166069031
v 0.8170615434646606 -0.08173993974924088 0.7098314166069031
v -0.602413535118103 -0.08173993974924088 -0.7112770676612854
v 0.8170615434646606 -0.08173993974924088 -0.7112770676612854
vt 0 0
vt 0 1
vt 1 0
vt 1 1
vn 0 1 0
vn 0 1 0
vn 0 1 0
vn 0 1 0
f 20/20/20 19/19/19 17/17/17 18/18/18
g object_6
usemtl Default
v -0.602413535118103 -0.1341008096933365 0.7098314166069031
v 0.8170615434646606 -0.1341008096933365 0.7098314166069031
v -0.602413535118103 -0.1341008096933365 -0.7112770676612854
v 0.8170615434646606 -0.1341008096933365 -0.7112770676612854
vt 0 0
vt 0 1
vt 1 0
vt 1 1
vn 0 -1 0
vn 0 -1 0
vn 0 -1 0
vn 0 -1 0
f 24/24/24 22/22/22 21/21/21 23/23/23
