<?xml version="1.0" encoding="utf-8"?>
<!-- Generator: Adobe Illustrator 19.0.0, SVG Export Plug-In . SVG Version: 6.00 Build 0)  -->
<svg version="1.1" id="Layer_1" xmlns="http://www.w3.org/2000/svg" xmlns:xlink="http://www.w3.org/1999/xlink" x="0px" y="0px"
	 viewBox="0 0 99 99" style="enable-background:new 0 0 99 99;" xml:space="preserve">
<path d="M57.9,71.1c-0.4,0-0.9,0.2-1.5,0.2c-1.3,0.1-1.7,2.8-3.6,2.9c-0.3,0-0.4,0-0.7,0l0,0.1c0,0,0.8,0.9,2.4,0.8
	c2.3-0.1,2.9-3,4.1-3.5c0.3,0,0.8,0.2,1.2,0.5l0.3-0.4C59.3,71.3,58.5,71,57.9,71.1"/>
<path d="M46.8,75.4c-1,0.8-1.6,0.9-2.2,0.9c-1.2-0.2-1.5-0.2-1.9-0.2c-1.3,0-2.1,0.5-2.1,1c0,0.4,0.5,0.7,1,0.7h1
	c0.6,0,0.8,0.4,1.3,0.4c0.6,0,2.5-0.9,3.6-1.9C47.3,76.2,46.9,75.9,46.8,75.4 M43.8,77.9c-0.4,0-0.5-0.4-1.3-0.4h-0.7
	c-0.4,0-0.5-0.1-0.5-0.3c0-0.3,0.7-0.5,1.4-0.5c0.8,0,1.7,0.2,1.7,0.8C44.3,77.8,44.1,77.9,43.8,77.9"/>
<path d="M56.3,76.2c-0.9,0-1.4,0.3-2.2,0.3c-0.8,0-1.5-0.3-2.1-0.7c-0.3,0.3-0.7,0.7-1.2,1c0.8,0.7,1.9,1.5,3.5,1.5
	c1.1,0,1.4-0.6,2.2-0.7c0.9-0.1,1.1-0.5,1.1-0.8C57.6,76.5,57.1,76.2,56.3,76.2 M56.2,77.3c-0.8,0.1-1.1,0.6-1.7,0.6
	c-0.4,0-0.7-0.2-0.7-0.4c0-0.3,0.3-0.4,0.8-0.5c0.5-0.1,1-0.3,1.6-0.3c0.4,0,0.6,0.1,0.6,0.3C56.7,77.1,56.6,77.2,56.2,77.3"/>
<path d="M50.1,74.9c-0.1-0.8-0.4-1.3-1.5-1.3c-0.8,0-1.3,0.5-1.3,1.4c0,0.5,0.5,1.1,1.1,1.2c0.7,0.1,0.7,0.4,1.4,0.4
	c0.4,0,0.8-0.2,1-0.5C50.4,75.8,50.2,75.4,50.1,74.9"/>
<path d="M50.8,72c-0.7,0-0.6-0.2-1.1-0.2c-0.4,0-0.6,0.6-1.1,0.7c-0.2,0.1-1.4,0.1-1.4,0.8c0,0.1,0.1,0.2,0.1,0.3l0.4-0.2
	c0,0,0-0.1,0-0.1c0-0.1,0.2-0.3,0.9-0.3c1.5,0,2,0.8,2,1.4c0,0.5,0.2,0.9,0.5,1l0.5-0.3c0-0.2-0.1-0.3-0.1-0.6
	c0-0.3,0.1-0.6,0.1-1.1C51.7,72.9,51.6,72,50.8,72"/>
<path d="M41.5,74.9c-0.8,0.6-2,1.2-2.9,1.2l-0.7,0c-1.8,0-1.5-2.6-2.8-2.6l-3,0l0,0.4l0.9,0c1.5,0,1.1,2.6,3.7,2.7
	c0.7,0,1.3,0,1.9,0c0.9,0,2-0.5,3.1-1.2L41.5,74.9z"/>
<path d="M46,74.3c-1.9-0.1-2.4-2.8-3.6-2.9c-0.5-0.1-1.1-0.2-1.5-0.2c-0.6-0.1-1.4,0.1-2.1,0.6l0.3,0.4c0.4-0.3,0.8-0.4,1.2-0.5
	c1.3,0.5,1.9,3.4,4.1,3.5c1.5,0.1,2.4-0.8,2.4-0.8l0-0.1C46.5,74.3,46.3,74.3,46,74.3"/>
<path d="M63.2,73.4c-1.2,0-0.9,2.6-2.8,2.6l-0.7,0c-1,0-2.1-0.6-2.9-1.2l-0.3,0.4c1.1,0.7,2.2,1.2,3.1,1.2c0.6,0,1.2,0,1.9,0
	c2.6-0.1,2.2-2.7,3.7-2.7l0.9,0l0-0.4L63.2,73.4z"/>
<path d="M71.3,44.6C71,44,71,43.6,71,43c-0.7-1-1-1.7-1-2.8c0.4,0.1,0.9,0.5,1.3,0.8c0.1-0.3,0.3-0.5,0.5-0.8
	c-0.5-0.4-1.4-0.9-2.4-1.2C68.9,40.7,69.4,43.1,71.3,44.6"/>
<path d="M72.9,46.2c0.1,0.6,0,1.3-0.2,2c-0.2-0.2-0.5-0.5-1-0.6c0,0-0.4,0.1-1.1,0.1c-1.2,0-2.1-0.4-3.2-1.4c0,0,1-0.3,1.8-0.3
	c0.8,0,1.9,0.5,2.3,0.9l0.1-0.1c0,0-0.7-1.6-2.6-1.6c-1.2,0-2.1,0.3-3.4,0.7c0,0,0.4,0.4,1.3,1.2c0.9,0.8,1.9,1.4,3.5,1.4
	c0.5,0,0.9-0.1,1.3-0.3c0.3,0.1,0.7,0.4,0.9,0.8c0,0,0,0.1,0,0.1c0,0.2,0,0.3,0,0.4c-0.1,0-0.2,0-0.3,0c-0.4,0-1,0.2-1.3,0.8
	c-0.2,0-0.5,0.1-0.7,0.2c-0.4,0.3-0.4,0.9,0,1.3s0.9,0.4,1.3,0c0.4-0.3,0.4-0.9,0-1.2c-0.1-0.1-0.1-0.1-0.2-0.2c0,0,0,0,0,0
	c0.1-0.3,0.4-0.5,0.8-0.5c0.2,0,0.4,0.1,0.6,0.1c0.4,0.9,1.1,1.4,1.1,2.1c0,0.4-0.2,0.8-0.5,1.3c-0.6,0.9-0.7,1.3-1.2,1.9
	c-0.4,0.6-0.9,0.8-1.4,1.5c-0.2,0.4-0.3,0.7-0.5,1.1c-0.5-0.6-0.8-1.2-0.8-2c0-0.1,0-0.2,0-0.3c0.5-0.7,0.7-1.5,0.7-2.2
	c0-1.8-1.6-3.3-4-3.7c-0.1,0.4-0.1,0.8-0.1,1.2c0,0.2,0,0.4,0,0.5c0,0-0.1,0-0.2,0c-0.3,0-0.5,0-0.6,0c-0.1-0.3-0.4-0.5-0.8-0.5
	c-0.5,0-0.9,0.4-0.9,0.9s0.4,0.9,0.9,0.9c0.5,0,0.9-0.4,0.9-0.9c0.1,0,0.2,0,0.3,0c0.2,0,0.3,0,0.4,0.1c0.2,1.2,0.9,2.2,2.2,2.9
	l0.1-0.1c-1.1-1.2-1.4-2.6-1.4-3.4c0-0.1,0-0.2,0-0.3c1.4,0.4,2.2,1.6,2.2,2.9c0,0.6-0.2,1.1-0.5,1.7c0,1.1,0.2,2,1,3.1
	c-0.2,0.3-0.3,0.6-0.4,1.1c0,0.2,0,0.3,0,0.5c0,0.4,0.1,0.9,0.1,1.3c-0.1-0.2-0.3-0.4-0.5-0.5c0,0,0,0,0,0c0-0.5-0.4-0.9-0.9-0.8
	c-0.5,0-0.9,0.4-0.8,0.9c0,0.5,0.4,0.9,0.9,0.8c0.3,0,0.6-0.2,0.8-0.5c0.1,0.1,0.2,0.2,0.3,0.4c0.2,0.4,0.1,0.6,0.1,0.9
	c-0.2,0.3-0.5,0.7-0.7,1.1c-0.2,0.5-0.2,1-0.5,1.6c-0.3,0.5-0.7,1.1-1.1,1.6l0,0c0.1-0.2,0.1-0.3,0.2-0.5c0.4-1.5,0-3.2-1.4-3.9
	c-0.1,0.2-0.2,0.4-0.2,0.7c-0.3,1.2-0.3,2.2,0.3,2.8l0.1-0.1c-0.1-0.6-0.1-1,0-1.6c0.1-0.3,0.1-0.4,0.2-0.5c0.6,0.6,0.7,1.9,0.5,2.8
	c-0.2,0.7-0.3,0.9-0.4,1.1c-0.2,0.2-0.4,0.3-0.5,0.4c-0.5,0.4-1.1,1.1-1.4,1.4l-0.1,0c0.2-0.6,0.5-1.5,0.5-2.4
	c0-0.9-0.5-2.1-1.5-2.7c-0.6,0.9-1,1.6-1,2.6c0,0.6,0.2,1.4,0.7,2.4l0.1,0c0,0-0.2-0.9-0.2-1.7c0-1.3,0.6-2,0.6-2s0.5,0.6,0.6,1.5
	c0.1,0.7-0.1,2.6-0.8,3.5c-0.1,0.2-0.3,0.3-0.4,0.4c-1,0.8-3,1.9-4.2,2.1l-0.5,1.3c2.4-0.9,3.5-1.4,4.6-2.1c0.5-0.3,0.6-0.4,1.1-0.7
	c0.8-0.5,1.5-0.8,2.5-1.1c0.3,0.1,0.7,0.1,1,0.1c0.7,0,1.4-0.2,2.1-0.7c1.2-0.8,1.6-2.6,1.6-2.6s-0.2,0-0.5,0
	c-0.5,0-1.3,0.1-2.1,0.4c-0.9,0.4-1.4,1.2-1.4,1.2l0.1,0.1c0,0,0.6-0.4,1.4-0.7c0.7-0.2,1.4-0.3,1.4-0.3s-0.5,1.2-1.5,1.6
	c-0.4,0.2-0.8,0.3-1.2,0.3c-0.3,0-0.6-0.1-1-0.1c-0.6,0.1-1.1,0.4-1.6,0.6l-0.1-0.1c0.2-0.2,0.5-0.6,1.1-1.1
	c0.7-0.7,1.6-1.3,2.4-2.1c0.2-0.2,0.4-0.5,0.5-0.7c0.3,0.1,0.9,0.3,1.7,0.3c1.5,0,3.1-0.8,3.4-2.4c-0.2,0-0.4,0-0.7,0
	c-1.2,0-2.2,0.3-2.7,1l0.1,0.1c0.6-0.3,1-0.4,1.5-0.4c0.3,0,0.4,0,0.5,0c-0.5,0.8-1.7,1.2-2.5,1.2c-0.6,0-0.9,0-1.1-0.1
	c0-0.1,0.1-0.2,0.1-0.2c0.3-0.6,0.3-1.3,0.6-1.8c0.1-0.1,0.2-0.3,0.3-0.5c0.2,0,0.3,0,0.5,0.1c3.6,0.3,5.5-1.6,6.3-4
	c-0.5-0.1-1-0.2-1.6-0.2c-1.7-0.1-3.5,0.8-4,2.4l0.1,0c0.3-0.3,0.8-0.8,1.5-1.1c1.4-0.6,2.5-0.3,2.5-0.3s-0.4,1.1-2,2
	c-1.4,0.8-3,0.7-3,0.7s0.3-0.8,0.3-1.2c0-0.5-0.1-0.9-0.1-1.4c0-1,0.3-1.3,0.6-2c0.1-0.3,0.2-0.5,0.2-0.7c0.2,0.1,0.4,0.1,0.7,0.1
	c0.7,0,1-0.4,1.5-0.4c0.2,0,0.3,0,0.4,0.1c-0.1,0.2-0.2,0.4-0.2,0.6c0,0.5,0.4,0.9,0.9,0.8c0.5,0,0.9-0.4,0.8-0.9
	c0-0.5-0.4-0.9-0.9-0.8c-0.1,0-0.2,0-0.3,0.1c-0.2-0.1-0.5-0.2-0.8-0.2c-0.6,0-0.9,0.3-1.5,0.3c-0.2,0-0.4-0.1-0.5-0.1
	c0,0,0-0.1,0.1-0.1c0.2-0.3,0.6-0.7,0.9-1c0.2,0.2,0.6,0.4,1.1,0.4c0.7,0,1.2-0.5,1.8-0.5c0.2,0,0.3,0,0.4,0.1
	c-0.1,0.1-0.1,0.3-0.1,0.5c0,0.5,0.4,0.9,0.9,0.8c0.5,0,0.9-0.4,0.8-0.9c0-0.5-0.4-0.9-0.9-0.8c-0.2,0-0.3,0.1-0.5,0.2
	c-0.2-0.1-0.4-0.2-0.7-0.2c-0.6,0-1.1,0.4-1.8,0.4c-0.3,0-0.5-0.1-0.7-0.3c0.2-0.3,0.4-0.6,0.6-0.9c0.3,0.1,0.9,0.2,1.6,0.1
	c1.6-0.1,3-1.1,3.2-2.7c-0.2,0-0.4,0-0.7,0c-1.2,0.1-2.2,0.5-2.6,1.2l0.1,0c0.6-0.3,0.9-0.5,1.5-0.6c0.3,0,0.4,0,0.6,0
	c-0.4,0.8-1.6,1.3-2.5,1.4c-0.4,0-0.7,0-0.9,0c0.1-0.2,0.3-0.4,0.3-0.5c0.4-0.5,0.6-0.9,0.6-1.3c0.3-0.1,0.7-0.3,1-0.5
	c2.2-1.6,2.6-3.5,2.6-5c-0.1-1.4-0.6-2.7-0.6-2.7s-0.2,0.2-0.7,0.6c-1.6,1.2-2.3,2.5-2.3,3.7c0.1,1,0.4,1.6,0.8,2.2l0.1-0.1
	c0,0-0.2-0.7-0.2-1.4C75.1,48.1,76,47,77,46.2c0.1,0.2,0.2,0.7,0.2,1.2c0,1.6-0.9,4-2.6,4.8c0-1.3-1.3-1.7-1.3-3.1
	c0-0.9,0.4-2.1,0.3-3.2c-0.4-0.4-0.8-1.2-0.9-2.3c-0.1-1.5,0.8-3,2.1-4.2c0.1,0.3,0.3,0.9,0.4,1.5c0.1,1.5-0.5,2.5-1.5,4l0.1,0.1
	c1.7-0.9,2.5-2.3,2.4-4.3c-0.1-1.3-0.7-2.3-1.3-3.3c-0.7,1.2-1.6,1.9-2.3,3c-0.7,1-0.9,2-0.9,3.1C71.8,44.8,72.2,45.3,72.9,46.2
	 M71.3,51.5c-0.1,0.1-0.3,0.1-0.4,0c-0.1-0.1-0.1-0.3,0-0.4c0.1-0.1,0.3-0.1,0.4,0C71.5,51.2,71.5,51.4,71.3,51.5 M64.9,52.3
	c-0.2,0-0.3-0.1-0.3-0.3c0-0.2,0.1-0.3,0.3-0.3c0.2,0,0.3,0.1,0.3,0.3C65.2,52.1,65,52.3,64.9,52.3 M68.4,61.5
	c-0.2,0-0.3-0.1-0.3-0.3c0-0.2,0.1-0.3,0.3-0.3c0.2,0,0.3,0.1,0.3,0.3C68.7,61.4,68.6,61.5,68.4,61.5 M74.6,57.9
	c0.2,0,0.3,0.1,0.3,0.3c0,0.2-0.1,0.3-0.3,0.3c-0.2,0-0.3-0.1-0.3-0.3C74.3,58,74.4,57.9,74.6,57.9 M76.6,56.2
	c0.2,0,0.3,0.1,0.3,0.3c0,0.2-0.1,0.3-0.3,0.3c-0.2,0-0.3-0.1-0.3-0.3C76.3,56.4,76.4,56.3,76.6,56.2"/>
<path d="M25.9,49.7l0.8,0.4c0-1,0-4.2-0.1-5.6l0.1,0c0.6,2,0.7,3.8,0.9,6l0.6,0.4c0.2-2.3,0.8-5.6,4.1-7.8c-1.4,0.2-3.6,1.5-4.5,2.9
	c-0.1-0.7-1.3-6-3.5-8.1c1.5,2.6,1.8,6,1.8,8.9C25.9,47.9,25.9,48.9,25.9,49.7 M29.3,44.9L29.3,44.9c-0.5,0.8-1.2,2.2-1.3,3.4
	c0-0.3-0.1-1.3-0.1-1.6C28.1,46,28.8,45.1,29.3,44.9"/>
<path d="M24.6,51.2c1.1,0.6,2.2,1.3,2.9,2.1l0.1-0.1c-0.1-0.4-0.3-0.9-1.4-1.8l0.1-0.1c1.1,0.3,2.3,1.4,2.2,3.3
	c0.3,0.3,0.7,0.8,1,1.1l0.1,0c0.2-3.1-1.5-4.6-3.5-5.4c-1.8-0.7-3.8-1.3-4.9-4C20.9,48.9,22.7,50.3,24.6,51.2"/>
<path d="M30.9,47.4c-0.4,0-0.7,0.1-1,0.3l0,0.1c0.2-0.1,0.4-0.1,0.6-0.1c0.8,0,1.5,0.4,1.9,1l-0.1,0.1c-0.5-0.3-1.2-0.6-1.8-0.6
	c-0.3,0-0.6,0.1-0.9,0.3c-0.7,0.5-0.6,2-0.8,2.7c0.3,0.4,0.6,0.8,0.8,1.2c0.4-0.9,0-2.8,0.6-3.2c0.2-0.1,0.3-0.2,0.5-0.2
	c1.1,0,2.7,1.8,3.9,1.8c-0.8-0.9-1-1.5-1.5-2.2C32.4,47.9,31.6,47.4,30.9,47.4"/>
<path d="M24,48.9c-0.1-0.9-0.2-1.7-0.5-2.7l0.1,0c0.5,0.8,0.8,2,1,2.9l0.4,0.2c-0.2-2.2-1.4-4.9-3.4-6.3c1.4,2,1.6,4.6,1.8,5.6
	L24,48.9z"/>
<path d="M34.5,72.7c-0.6-0.5-1.5-1.1-3-2l0.1-0.1c0.3,0,1,0,2,0.7c2.3,1.6,3.9,2.5,7.5,3.3l-0.4-0.9c-2.5-0.9-4.8-2.6-6.1-7.1
	c0,0.2,0,0.4,0,0.6c0,0.9,0.3,2,1.1,3.3l-0.1,0.1c-1.6-1.5-3.8-4.7-4.1-7.7h0c-0.2,0.7-0.3,1.4-0.3,2c0,1.7,0.2,2.8,1,4.2l-0.1,0.1
	c-2-2-2.8-5.1-2.8-7.4c0-1.5,0.2-2,0.2-3.4c0-2.6-3-4.3-5.6-7.1c0.5,1.9,1.2,3.5,3,4.9l0.1-0.1c-0.4-0.7-0.8-1.4-1.2-2.1l0.1-0.1
	c2,1.8,2.4,2.6,2.3,4.3c-0.1,1.9,0,3.3,0.6,5.6L28.7,64c-0.6-0.9-1-2.1-1.4-4.2c-0.4-2.4-0.9-3.1-1.8-4.1c0,0.2,0.5,1.1,0.8,3.2
	c0.3,2.2,0.8,4.1,2.9,7.6L29,66.6c-1.8-2.3-3.3-4.9-3.7-9.2c-0.2,0.5-0.3,1.1-0.3,1.7c0,0.6,0,1.2,0.2,1.8l-0.1,0
	c-0.5-0.9-1.7-1.7-3.1-1.6c0,0,0,0,0,0c1.4,1.1,3.1,4.3,3.9,5.4l0.2-0.2l-2-3.4l0.1-0.1c1.3,1,2.5,3.3,3.6,5
	c-0.5-0.2-1.2-0.3-1.9-0.3c-0.4,0-0.8,0.1-1.1,0.2c1.3,0.4,3.3,2,4.9,3.5l0.2-0.2c0,0-1-1.3-2.9-2.6l0.1-0.1c0.3,0,1.3,0.3,2.5,1.3
	c0.9,0.8,1.6,1.5,2.5,2.2l-0.1,0.1c-0.3-0.1-0.6-0.1-0.9-0.1c-0.5,0-1,0.1-1.4,0.2l0,0c1.1,0.3,3.1,1.5,4.5,2.6L34.5,72.7z
	 M32.1,67.3L32.1,67.3c1.2,2,2.5,4,5.7,5.8l-0.1,0.1c-1.6-0.6-2.7-1.3-3.8-2.3C32.6,69,32.1,67.6,32.1,67.3"/>
<path d="M24.5,58.7l0.2-0.1c-0.2-2.1-0.8-3.8-2.1-6.3l0.1-0.1c1,1,1.5,1.8,2,3l0.1-0.1c-0.1-1.1-0.5-2.3-1.3-3.2
	c-0.9-1-1.4-0.9-2.8-2.5c0.6,2.1,0.8,2.8,1.8,4.8C23.1,55.7,24.1,57.1,24.5,58.7"/>
<path d="M23.6,59.1l0.3,0c-0.2-0.9-0.7-1.9-1.2-2.8c-0.5-0.2-1.2-0.3-2-0.4C22,56.9,22.8,57.7,23.6,59.1"/>
<path d="M66.4,19.8c0.2,0.1,0.3,0.2,0.5,0.3c0.4-0.3,0.7-0.5,1.1-0.8c0.5,0.3,1.1,0.7,1.6,1c-0.1,0.4-0.2,0.9-0.3,1.3
	c0.1,0.1,0.3,0.2,0.4,0.3c0.1-0.1,0.2-0.3,0.3-0.4c0.3-1.4,0.5-2.8,0.8-4.2c-0.2-0.1-0.4-0.3-0.7-0.4c-1.2,0.8-2.3,1.6-3.5,2.5
	C66.6,19.5,66.5,19.7,66.4,19.8 M70.1,17.7c-0.1,0.6-0.2,1.3-0.4,1.9c-0.4-0.3-0.8-0.5-1.2-0.8C69.1,18.5,69.6,18.1,70.1,17.7"/>
<path d="M64.6,18.9c0.9,0.5,1.8,0.4,2.3-0.6c-0.2-0.1-0.4-0.2-0.6-0.3c-0.3,0.5-0.8,0.7-1.4,0.3c-0.7-0.4-0.9-1.1-0.4-2.1
	c0.5-1,1.3-1.2,2-0.9c0.5,0.3,0.8,0.8,0.4,1.5c0.2,0.1,0.4,0.2,0.6,0.3c0.6-1,0.1-1.9-0.7-2.3c-1.1-0.6-2.2-0.2-2.9,1.1
	C63.2,17.3,63.5,18.3,64.6,18.9"/>
<path d="M60.4,15.8c0.6,0.2,1.2,0.4,1.8,0.6c0,0.5,0,0.9,0,1.4c0.2,0.1,0.3,0.1,0.5,0.2c0.1-0.1,0.1-0.3,0.2-0.5
	c0-1.4-0.1-2.9-0.2-4.3c-0.2-0.1-0.5-0.2-0.7-0.3c-1,1.1-1.9,2.1-2.8,3.2c0,0.1-0.1,0.3-0.2,0.5c0.2,0,0.3,0.1,0.5,0.1
	C59.8,16.5,60.1,16.1,60.4,15.8 M62.1,13.8c0,0.7,0.1,1.3,0.1,2c-0.5-0.2-0.9-0.3-1.4-0.5C61.2,14.8,61.6,14.3,62.1,13.8"/>
<path d="M71.2,23c1.1,0.9,2.1,0.8,3-0.3c0.9-1.1,0.9-2.2-0.3-3.1c-0.4-0.3-0.7-0.6-1.1-0.9c-0.9,1.2-1.8,2.3-2.7,3.5
	C70.6,22.5,70.9,22.7,71.2,23 M73.1,19.6c0.2,0.2,0.3,0.3,0.5,0.4c0.7,0.6,0.8,1.3,0.1,2.2c-0.7,0.9-1.4,0.9-2.1,0.3
	c-0.2-0.2-0.3-0.3-0.5-0.4C71.8,21.3,72.4,20.5,73.1,19.6"/>
<path d="M79.1,30.8c-0.1-0.1-0.2-0.3-0.3-0.4c-0.2,0.1-0.3,0.2-0.5,0.3c0.3,0.4,0.6,0.9,0.9,1.4c0.2-0.1,0.3-0.2,0.5-0.3
	c-0.1-0.1-0.2-0.3-0.3-0.4c0.9-0.6,1.9-1.2,2.8-1.7c0.1,0.1,0.2,0.3,0.3,0.4c0.2-0.1,0.3-0.2,0.5-0.3c-0.3-0.5-0.7-1-1-1.5
	c-0.2,0.1-0.3,0.2-0.5,0.3c0.1,0.1,0.2,0.3,0.3,0.4C80.9,29.6,80,30.2,79.1,30.8"/>
<path d="M76,27.6l2.6-2.1c-0.2,0.6-0.5,1.3-0.8,1.8c0.1,0.1,0.2,0.3,0.4,0.4l2-0.3l-2.7,2c0.1,0.2,0.3,0.4,0.4,0.5l3.5-2.6
	c-0.1-0.2-0.3-0.4-0.4-0.6c-0.8,0.1-1.7,0.2-2.4,0.3c0.3-0.7,0.6-1.5,0.9-2.3c-0.2-0.2-0.3-0.4-0.5-0.6l-3.4,2.8
	C75.7,27.3,75.8,27.5,76,27.6"/>
<path d="M75.1,26.7l0.5-0.4c-0.5-0.5-0.9-0.9-1.4-1.4c0.3-0.3,0.6-0.6,1-1c0.5,0.4,0.8,0.8,1.2,1.2c0.1-0.1,0.3-0.3,0.4-0.4
	c-0.4-0.5-0.8-0.8-1.2-1.2l0.9-0.9c0.5,0.5,0.9,0.9,1.4,1.5c0.1-0.1,0.3-0.3,0.4-0.4c-0.7-0.7-1.2-1.3-1.9-2c-1,1-2.1,2.1-3.1,3.2
	C74,25.5,74.5,26,75.1,26.7"/>
<path d="M79.4,32.5c0.1,0.2,0.2,0.4,0.3,0.5l1.3-0.2c0.2,0.4,0.5,0.9,0.7,1.3c-0.4,0.2-0.8,0.4-1.1,0.6c0.4,0.7,0.7,1.6,1,2.1
	l0.6-0.3c-0.2-0.5-0.4-1-0.7-1.6c0.4-0.2,0.8-0.4,1.2-0.6c0.2,0.5,0.4,1,0.6,1.4l0.6-0.2c-0.2-0.5-0.4-1-0.6-1.4
	c0.4-0.2,0.7-0.4,1.1-0.6c0.2,0.5,0.5,1,0.7,1.5l0.6-0.2c-0.5-1.1-1-2.3-1.5-3.2l-4.1,0.6C79.8,32.4,79.6,32.5,79.4,32.5 M83.7,32.4
	c0.1,0.1,0.2,0.5,0.3,0.6c-0.6,0.3-1.2,0.6-1.8,0.9c-0.2-0.4-0.4-0.8-0.6-1.1L83.7,32.4z"/>
<path d="M47.3,15.6c0.5,0,0.9-0.2,1.2-0.6l0,0.4c0.2,0,0.4,0,0.7,0L49,13c-0.8,0-1.5,0-2.3,0.1c0,0.2,0,0.4,0,0.6
	c0.5,0,1.1-0.1,1.6-0.1c0,0.2,0,0.5,0,0.7c-0.2,0.3-0.6,0.6-1.1,0.6c-0.8,0-1.4-0.4-1.4-1.6c-0.1-1.1,0.4-1.7,1.3-1.8
	c0.7,0,1.1,0.3,1.2,0.9c0.2,0,0.5,0,0.7,0c0-1.1-0.9-1.6-1.9-1.5c-1.2,0.1-2.1,1-1.9,2.5C45.3,14.9,46.1,15.6,47.3,15.6"/>
<path d="M45.1,15.7c0-0.2-0.1-0.4-0.1-0.6c-0.7,0.1-1.4,0.2-2.1,0.3c-0.1-0.4-0.2-0.9-0.3-1.3c0.6-0.1,1.3-0.2,1.9-0.3
	c0-0.2-0.1-0.4-0.1-0.6c-0.6,0.1-1.2,0.2-1.9,0.3c-0.1-0.4-0.2-0.8-0.2-1.2c0.3-0.1,1.8-0.3,2.2-0.4c0-0.2-0.1-0.4-0.1-0.6
	c-0.9,0.1-2.1,0.3-2.9,0.5c0.3,1.4,0.6,2.9,0.9,4.3C43.3,16,44.3,15.8,45.1,15.7"/>
<path d="M39.2,17c-0.2-0.6-0.3-1.1-0.5-1.7c0.3-0.1,0.5-0.2,0.8-0.2c0.6,0.5,1.1,0.9,1.7,1.4c0.1,0,0.4-0.1,0.5-0.1l-0.1-0.5
	c-0.5-0.4-0.9-0.8-1.4-1.1c0.5-0.3,0.7-0.8,0.5-1.4c-0.2-0.9-0.9-1.1-1.9-0.8c-0.5,0.2-1,0.3-1.6,0.5c0.4,1.4,0.9,2.8,1.3,4.2
	C38.8,17.1,39,17,39.2,17 M38.1,13.3c0.3-0.1,0.6-0.2,0.9-0.3c0.5-0.1,0.8,0,1,0.5c0.1,0.5-0.1,0.8-0.6,0.9
	c-0.3,0.1-0.6,0.2-0.9,0.3C38.4,14.2,38.2,13.8,38.1,13.3"/>
<path d="M53.4,14.3c0.5,0.1,1.1,0.1,1.6,0.2c-0.1,0.4-0.1,0.8-0.2,1.3c0.8,0.1,1.7,0.3,2.6,0.5l0.1-0.6c-0.3-0.1-1.4-0.3-2-0.4
	c0.1-0.4,0.1-0.9,0.2-1.3c0.5,0.1,1.1,0.2,1.7,0.3l0.1-0.6c-0.5-0.1-1.2-0.3-1.7-0.3c0.1-0.4,0.1-0.8,0.2-1.2c0.5,0.1,1.4,0.3,2,0.4
	l0.1-0.6c-1.1-0.3-2.8-0.5-3.9-0.7l-2,3.7c0,0.1-0.1,0.4-0.1,0.5c0.1,0,0.4,0,0.6,0L53.4,14.3z M54.7,11.9c0.1,0,0.5,0.1,0.7,0.1
	L55.1,14c-0.4-0.1-0.9-0.1-1.4-0.2L54.7,11.9z"/>
<path d="M51.7,14.9c-0.1,0-0.5,0-0.6,0c0.1-1.1,0.1-2.2,0.2-3.3c0.2,0,0.5,0,0.6,0c0-0.2,0-0.4,0-0.6c-0.5,0-1.5-0.1-2-0.1
	c0,0.2,0,0.4,0,0.6c0.2,0,0.5,0,0.7,0c0,1.1-0.1,2.2-0.1,3.3c-0.1,0-0.5,0-0.6,0c0,0.2,0,0.4,0,0.6c0.5,0,1.4,0,1.9,0.1
	C51.7,15.3,51.7,15.1,51.7,14.9"/>
<path d="M20.3,25c0.8,0.7,1.7,1.4,2.5,2.1c-0.1,0.1-0.2,0.2-0.3,0.3c0.1,0.1,0.3,0.2,0.4,0.4c0.3-0.4,0.7-0.8,1-1.1
	c-0.1-0.1-0.3-0.3-0.4-0.4c-0.1,0.1-0.2,0.2-0.3,0.3c-0.8-0.7-1.6-1.5-2.4-2.2c0.1-0.1,0.2-0.2,0.3-0.3c-0.1-0.1-0.3-0.3-0.4-0.4
	c-0.4,0.4-0.7,0.8-1.1,1.2c0.1,0.1,0.3,0.2,0.4,0.4C20.1,25.3,20.2,25.1,20.3,25"/>
<path d="M16,31.3c0.9,0.5,1.9,1.1,2.8,1.6c-0.1,0.1-0.2,0.3-0.2,0.4c0.2,0.1,0.3,0.2,0.5,0.3c0.2-0.4,0.5-0.9,0.8-1.4
	c-0.2-0.1-0.3-0.2-0.5-0.3c-0.1,0.1-0.2,0.3-0.2,0.4c-0.9-0.5-1.9-1.1-2.8-1.6c0.1-0.1,0.2-0.3,0.3-0.4c-0.2-0.1-0.3-0.2-0.5-0.3
	c-0.3,0.5-0.6,1-0.9,1.5c0.2,0.1,0.3,0.2,0.5,0.3C15.8,31.6,15.9,31.4,16,31.3"/>
<path d="M18.3,30.4c1.2,0.9,2.3,0.7,3-0.2c0.3-0.4,0.4-0.9,0.3-1.3c0.1,0.1,0.2,0.2,0.3,0.2c0.1-0.2,0.3-0.4,0.4-0.5
	c-0.6-0.5-1.2-1-1.9-1.4c-0.5,0.6-0.9,1.2-1.4,1.8c0.2,0.1,0.3,0.2,0.5,0.3c0.3-0.4,0.6-0.9,0.9-1.3c0.2,0.1,0.4,0.3,0.6,0.4
	c0.1,0.4,0.1,0.8-0.2,1.2c-0.5,0.6-1.2,0.8-2.1,0.1c-0.9-0.6-1.1-1.4-0.6-2.1c0.4-0.5,1-0.7,1.5-0.3c0.1-0.2,0.3-0.4,0.4-0.5
	c-0.8-0.6-1.8-0.3-2.4,0.5C16.9,28.3,17.1,29.5,18.3,30.4"/>
<path d="M14.5,35.5c0.6,0.3,1.1,0.1,1.7-0.6c0.6-0.7,0.9-0.9,1.2-0.7c0.4,0.2,0.5,0.6,0.3,1c-0.2,0.5-0.7,0.7-1.3,0.5l-0.3,0.6
	c1,0.4,1.7,0,2.1-0.8c0.4-0.8,0.3-1.5-0.5-1.9c-0.7-0.3-1.2-0.1-1.8,0.7c-0.6,0.7-0.8,0.7-1.1,0.6c-0.3-0.1-0.4-0.5-0.2-0.9
	c0.2-0.4,0.5-0.7,1-0.4l0.3-0.6c-0.8-0.4-1.5,0-1.8,0.8C13.7,34.4,13.9,35.2,14.5,35.5"/>
<path d="M33.2,19.5l-1.5-2.9l1.7,1.1c0.2-0.1,0.3-0.2,0.5-0.3l0.2-2c0.5,1,1.4,3,1.4,3c0.2-0.1,0.5-0.2,0.6-0.3c0,0-1.2-2.7-1.8-4
	c-0.2,0.1-0.5,0.2-0.7,0.3l-0.2,2.5l-2.1-1.4c-0.2,0.1-0.4,0.2-0.6,0.3l2,3.9C32.8,19.7,33.1,19.6,33.2,19.5"/>
<path d="M30.2,21.4c0.4-0.3,0.7-0.7,0.7-1l0.2,0.3c0.1-0.1,0.4-0.2,0.6-0.4l-2.4-3.7c-0.1,0.1-0.4,0.3-0.6,0.4l1.8,2.8
	c0,0.4-0.1,0.8-0.5,1.1c-0.5,0.3-0.9,0.2-1.3-0.3L27,18.1c-0.3,0.2-0.4,0.3-0.5,0.4l1.7,2.5C28.8,22,29.7,21.8,30.2,21.4"/>
<path d="M26.5,24.2L26,23.8c-0.6,0.5-0.7,0.7-1.3,1.2l-2.6-2.7c-0.1,0.1-0.3,0.3-0.5,0.5l3.1,3.2C24.9,25.7,26.1,24.6,26.5,24.2"/>
<path d="M28.7,22.4l-0.4-0.5c-0.4,0.3-1,0.8-1.4,1.1l-2.4-2.9c-0.2,0.1-0.4,0.3-0.5,0.4l2.8,3.4C27.3,23.5,28.5,22.5,28.7,22.4"/>
<path d="M51,84.6c-0.2,0.4-0.3,0.9-0.5,1.3c-0.6,0-1.3,0-1.9,0c-0.2-0.4-0.3-0.9-0.5-1.3c-0.2,0-0.3,0-0.5,0l0,0.5
	c0.5,1.3,1,2.6,1.6,4c0.3,0,0.5,0,0.8,0c0.6-1.3,1.1-2.6,1.6-4l0-0.5C51.4,84.6,51.2,84.6,51,84.6 M49.6,88.3
	c-0.2-0.6-0.5-1.2-0.7-1.8c0.5,0,1,0,1.5,0C50.1,87.1,49.8,87.7,49.6,88.3"/>
<path d="M45.9,86.2c-0.3,0-0.5-0.1-0.8-0.1c-0.3-0.6-0.7-1.3-1-2c-0.2,0-0.3-0.1-0.5-0.1c0,0.1,0,0.3-0.1,0.5
	c0.3,0.5,0.5,1.1,0.8,1.6c-0.5,0.1-1,0.4-1.1,1.1c-0.1,0.9,0.4,1.4,1.4,1.5c0.5,0.1,1.1,0.1,1.6,0.2c0.2-1.5,0.3-2.9,0.5-4.4
	c-0.2,0-0.5,0-0.7-0.1C46,85,46,85.6,45.9,86.2 M45.7,88.2c-0.3,0-0.6-0.1-0.9-0.1c-0.5-0.1-0.8-0.3-0.7-0.8
	c0.1-0.5,0.4-0.7,0.9-0.6c0.3,0,0.6,0.1,0.9,0.1C45.8,87.3,45.7,87.8,45.7,88.2"/>
<path d="M41.2,83.5c-1-0.2-1.8,0.1-2.1,1.1c0.2,0.1,0.4,0.1,0.7,0.2c0.2-0.6,0.6-0.9,1.3-0.7c0.8,0.2,1.1,0.8,0.9,1.9
	c-0.3,1.1-0.9,1.5-1.7,1.3c-0.6-0.1-1-0.6-0.8-1.3c-0.2-0.1-0.4-0.1-0.7-0.2c-0.3,1.1,0.4,1.8,1.3,2.1c1.2,0.3,2.2-0.3,2.5-1.8
	C42.9,84.7,42.3,83.8,41.2,83.5"/>
<path d="M34.5,81.8c0.1-0.2,0.2-0.3,0.3-0.5c-0.5-0.2-0.9-0.4-1.4-0.7c-0.1,0.2-0.2,0.3-0.3,0.5c0.1,0.1,0.3,0.1,0.4,0.2
	c-0.5,1-1,1.9-1.5,2.9c-0.1-0.1-0.3-0.1-0.4-0.2c-0.1,0.2-0.2,0.3-0.3,0.5c0.5,0.3,1,0.5,1.5,0.7c0.1-0.2,0.2-0.4,0.3-0.5
	c-0.2-0.1-0.3-0.1-0.4-0.2c0.5-1,1-2,1.4-2.9C34.3,81.7,34.4,81.8,34.5,81.8"/>
<path d="M31.9,79.8c-0.2-0.1-0.4-0.2-0.6-0.4c-0.7,1.1-1.4,2.2-2,3.2c-0.4-0.2-0.7-0.5-1.1-0.7c-0.1,0.2-0.2,0.3-0.3,0.5
	c0.9,0.6,1.9,1.2,2.8,1.7c0.1-0.2,0.2-0.3,0.3-0.5c-0.4-0.2-0.7-0.4-1.1-0.6C30.6,82,31.3,80.9,31.9,79.8"/>
<path d="M27.6,76.8c-0.1,0.2-0.3,0.3-0.4,0.5c0.5,0.4,1.1,0.9,1.7,1.3c-0.3,0.4-0.5,0.7-0.8,1.1c-0.5-0.4-1-0.8-1.5-1.1
	c-0.1,0.2-0.2,0.3-0.4,0.5c0.5,0.4,1,0.8,1.5,1.2c-0.2,0.3-0.5,0.7-0.7,1c-0.6-0.4-1.2-0.9-1.7-1.3c-0.1,0.2-0.2,0.3-0.4,0.5
	c0.8,0.6,1.5,1.2,2.3,1.8c0.9-1.2,1.7-2.4,2.6-3.6C29.1,77.9,28.3,77.3,27.6,76.8"/>
<path d="M25.7,77.9c1-1.1,0.9-2.2,0-3c-0.7-0.7-1.7-0.7-2.4,0c0.2,0.2,0.3,0.3,0.5,0.5c0.4-0.5,1-0.5,1.5,0c0.6,0.5,0.6,1.3-0.1,2.1
	c-0.7,0.9-1.5,0.9-2.1,0.4c-0.5-0.4-0.6-1-0.1-1.5c-0.2-0.2-0.3-0.3-0.5-0.5c-0.8,0.8-0.5,1.8,0.2,2.4
	C23.6,79.2,24.7,79.1,25.7,77.9"/>
<path d="M23.5,72.7c-0.1-0.2-0.3-0.3-0.4-0.5c-1,0.8-1.9,1.6-2.9,2.5c-0.3-0.3-0.5-0.7-0.8-1l-0.5,0.4c0.7,0.9,1.4,1.7,2.1,2.5
	c0.1-0.1,0.3-0.3,0.5-0.4c-0.3-0.3-0.6-0.6-0.9-1C21.5,74.4,22.5,73.5,23.5,72.7"/>
<path d="M20.3,72.4c1.2-0.8,1.4-1.9,0.8-2.9c-0.7-1-1.8-1.2-3-0.4c-1.2,0.8-1.5,1.9-0.8,3C17.9,73.1,19.1,73.3,20.3,72.4 M17.8,71.7
	c-0.4-0.7-0.2-1.4,0.7-2c0.9-0.6,1.6-0.5,2.1,0.2c0.4,0.7,0.2,1.4-0.7,2C19,72.5,18.2,72.4,17.8,71.7"/>
<path d="M19.2,66.6c-0.5,0.3-1.1,0.6-1.6,0.8c-0.1-0.2-0.3-0.5-0.4-0.7c0.4-0.6,0.7-1.3,1.1-1.9c-0.1-0.1-0.1-0.3-0.2-0.5
	c-0.1,0.1-0.3,0.1-0.4,0.2c-0.3,0.5-0.6,1-0.9,1.5c-0.4-0.4-0.9-0.6-1.5-0.3c-0.8,0.4-0.9,1.1-0.5,2c0.2,0.5,0.5,0.9,0.8,1.4
	c1.3-0.7,2.6-1.4,3.9-2.1C19.4,67,19.3,66.8,19.2,66.6 M15.8,68.3c-0.1-0.3-0.3-0.6-0.4-0.8c-0.2-0.4-0.2-0.8,0.3-1
	c0.5-0.2,0.8,0,1,0.4c0.1,0.3,0.3,0.5,0.4,0.8C16.6,67.9,16.2,68.1,15.8,68.3"/>
<path d="M17.3,62.3c-0.2-0.5-0.5-0.8-0.8-0.9c0.1,0,0.3-0.1,0.4-0.1c-0.1-0.2-0.1-0.4-0.2-0.6c-1.4,0.5-2.8,1-4.2,1.5
	c0.1,0.2,0.1,0.4,0.2,0.7c1-0.4,2.1-0.7,3.1-1.1c0.4,0,0.8,0.3,0.9,0.7c0.2,0.5,0,0.9-0.6,1.2c-0.9,0.3-1.8,0.7-2.7,1
	c0.1,0.2,0.2,0.4,0.3,0.7c0.9-0.4,1.8-0.7,2.8-1.1C17.5,63.7,17.5,62.9,17.3,62.3"/>
<path d="M13.1,55.2c1.5-0.1,2.2-1,2.1-2.2c0-0.5-0.2-0.9-0.5-1.2c0.1-0.1,0.2-0.2,0.3-0.4c0-0.1,0-0.3,0-0.4c-0.2,0-0.3,0-0.5,0
	c-0.1,0.1-0.2,0.2-0.3,0.4c-0.4-0.2-0.8-0.3-1.4-0.3c-1.5,0.1-2.3,0.9-2.2,2.2C10.7,54.6,11.6,55.3,13.1,55.2 M11.2,53.4
	c-0.1-0.8,0.5-1.4,1.6-1.4c0.3,0,0.6,0,0.9,0.1c-0.3,0.3-0.6,0.7-1,1c0,0.1,0,0.3,0,0.4c0.1,0,0.3,0,0.4,0c0.3-0.4,0.7-0.7,1-1.1
	c0.2,0.2,0.3,0.5,0.4,0.8c0.1,0.8-0.4,1.3-1.6,1.4C11.9,54.6,11.3,54.2,11.2,53.4"/>
<path d="M10.5,50.7c0.1,0,0.3,0,0.5,0c1.3-0.5,2.6-1,4-1.4c0-0.2,0-0.5,0-0.8c-1.3-0.6-2.6-1.1-3.9-1.7c-0.1,0-0.3,0-0.5,0
	c0,0.2,0,0.4,0,0.6c1.2,0.5,2.4,1,3.6,1.5c-1.2,0.4-2.4,0.8-3.7,1.2C10.5,50.3,10.5,50.5,10.5,50.7"/>
<path d="M15.5,43.6c-0.2,0-0.4-0.1-0.6-0.1c-0.1,0.7-0.2,1.4-0.3,2.1c-0.4-0.1-0.9-0.1-1.3-0.2c0.1-0.6,0.2-1.2,0.3-1.9
	c-0.2,0-0.4-0.1-0.6-0.1c-0.1,0.6-0.2,1.3-0.3,1.9c-0.4-0.1-0.8-0.1-1.2-0.2c0.1-0.7,0.2-1.5,0.3-2.2c-0.2,0-0.4-0.1-0.6-0.1
	c-0.2,1-0.3,1.9-0.4,2.9c1.5,0.2,2.9,0.4,4.4,0.6C15.2,45.4,15.4,44.5,15.5,43.6"/>
<path d="M80.4,69.9c-0.7,0.6-1,0.7-1.4,0.4c-0.3-0.3-0.4-0.6,0-1.1c0.3-0.5,0.8-0.6,1.4-0.2c0.1-0.2,0.3-0.4,0.4-0.6
	c-0.9-0.6-1.7-0.3-2.2,0.4c-0.5,0.7-0.6,1.4,0.1,2c0.6,0.5,1.1,0.3,1.9-0.3c0.7-0.6,0.9-0.6,1.2-0.4c0.3,0.2,0.3,0.6,0,0.9
	c-0.3,0.4-0.7,0.6-1.1,0.2c-0.1,0.2-0.3,0.4-0.4,0.6c0.7,0.6,1.5,0.3,2-0.5c0.5-0.6,0.5-1.4-0.1-1.8C81.6,69.2,81.1,69.3,80.4,69.9"
	/>
<path d="M79,72.1c-1.2-0.9-2.3-0.8-3,0.1c-0.6,0.8-0.7,1.7,0.1,2.4c0.1-0.2,0.3-0.3,0.4-0.5c-0.5-0.4-0.5-0.9-0.1-1.5
	c0.5-0.6,1.3-0.7,2.1,0c0.9,0.7,1,1.5,0.5,2.1c-0.4,0.5-1,0.6-1.5,0.2c-0.1,0.2-0.3,0.4-0.4,0.5c0.9,0.7,1.8,0.5,2.4-0.3
	C80.3,74.2,80.2,73,79,72.1"/>
<path d="M73.3,75c-0.4,0.4-0.5,0.8-0.5,1.1c-0.1-0.1-0.2-0.2-0.3-0.3c-0.2,0.1-0.3,0.3-0.5,0.4c1,1.1,2,2.2,3,3.3
	c0.2-0.2,0.4-0.3,0.5-0.5c-0.7-0.8-1.5-1.6-2.2-2.4c-0.1-0.4,0-0.8,0.3-1.1c0.4-0.4,0.9-0.4,1.3,0.1c0.7,0.7,1.3,1.4,2,2.1
	c0.1-0.1,0.3-0.3,0.5-0.5c-0.7-0.7-1.4-1.4-2.1-2.1C74.6,74.3,73.8,74.6,73.3,75"/>
<path d="M57.9,83.6c0.1,0.6,0.3,1.2,0.4,1.8c-0.3,0.1-0.5,0.1-0.8,0.2c-0.5-0.5-1.1-1-1.6-1.5c-0.1,0-0.3,0.1-0.5,0.1
	c0,0.1,0.1,0.4,0.1,0.5c0.4,0.4,0.9,0.8,1.3,1.2c-0.5,0.3-0.7,0.7-0.6,1.4c0.2,0.9,0.8,1.2,1.8,0.9c0.6-0.1,1.1-0.3,1.6-0.4
	c-0.4-1.4-0.7-2.9-1.1-4.3C58.3,83.5,58.1,83.6,57.9,83.6 M57.9,87.5c-0.5,0.1-0.8,0-0.9-0.5c-0.1-0.5,0.2-0.8,0.6-0.9
	c0.3-0.1,0.6-0.1,0.9-0.2c0.1,0.5,0.2,0.9,0.3,1.4C58.5,87.4,58.2,87.5,57.9,87.5"/>
<path d="M61.2,82.5c-1.1,0.4-1.6,1.4-1.1,2.8c0.5,1.4,1.5,1.9,2.7,1.5c1.2-0.4,1.6-1.5,1.1-2.9C63.3,82.6,62.3,82.1,61.2,82.5
	 M62.6,86.2c-0.8,0.3-1.4-0.1-1.8-1.2c-0.4-1-0.1-1.7,0.6-2c0.7-0.3,1.4,0.1,1.8,1.1C63.6,85.2,63.3,86,62.6,86.2"/>
<path d="M83.7,44.5c0.6-0.1,1.2-0.2,1.8-0.3c0,0.3,0.1,0.6,0.1,0.9c0.1,0.9,0.7,1.4,1.5,1.3c0.9-0.1,1.2-0.7,1.1-1.7
	c-0.1-0.5-0.2-1.1-0.3-1.6c-1.5,0.2-2.9,0.5-4.4,0.7C83.7,44.1,83.7,44.3,83.7,44.5 M87.5,43.9c0.1,0.3,0.1,0.6,0.1,0.9
	c0.1,0.5-0.1,0.8-0.6,0.9c-0.5,0.1-0.7-0.2-0.8-0.7c0-0.3-0.1-0.6-0.1-0.9C86.6,44.1,87,44,87.5,43.9"/>
<path d="M87.9,47.5c-1.1,0.1-2.2,0.1-3.3,0.2c0-0.1,0-0.3,0-0.4c-0.2,0-0.4,0-0.6,0c0,0.5,0.1,1,0.1,1.5c0.2,0,0.4,0,0.6,0
	c0-0.1,0-0.3,0-0.4c1.1-0.1,2.2-0.1,3.3-0.2c0,0.2,0,0.3,0,0.5c0.2,0,0.4,0,0.6,0c0-0.6,0-1.1-0.1-1.6c-0.2,0-0.4,0-0.6,0
	C87.9,47.2,87.9,47.4,87.9,47.5"/>
<path d="M86.3,49.7c-1.5,0-2.3,0.8-2.3,2c0,1,0.5,1.7,1.6,1.8c0-0.2,0-0.5,0-0.7c-0.6,0-1-0.4-1-1.1c0-0.8,0.6-1.3,1.7-1.3
	c1.1,0,1.7,0.5,1.7,1.3c0,0.6-0.4,1.1-1.1,1.1c0,0.2,0,0.5,0,0.7c1.1,0,1.7-0.8,1.7-1.8C88.6,50.5,87.8,49.7,86.3,49.7"/>
<path d="M87.6,55.2c-1.3-0.2-2.5-0.4-3.8-0.5c0,0.2-0.1,0.4-0.1,0.7c1.3,0.2,2.5,0.4,3.8,0.6c-0.1,0.4-0.1,0.8-0.2,1.3
	c0.2,0,0.4,0.1,0.6,0.1c0.2-1.1,0.4-2.2,0.5-3.2c-0.2,0-0.4,0-0.6-0.1C87.7,54.4,87.7,54.8,87.6,55.2"/>
<path d="M85.7,57.1c-1.4-0.3-2.4,0.3-2.7,1.4c-0.3,1.2,0.3,2.1,1.7,2.5c1.4,0.4,2.4-0.2,2.7-1.4C87.8,58.4,87.1,57.4,85.7,57.1
	 M86.9,59.4c-0.2,0.8-0.9,1.1-2,0.9c-1.1-0.3-1.5-0.9-1.3-1.6c0.2-0.8,0.8-1.1,1.9-0.9C86.6,58,87.1,58.6,86.9,59.4"/>
<path d="M82.1,61.8c0.6,0.2,1.1,0.4,1.7,0.6c-0.1,0.2-0.2,0.5-0.3,0.7c-0.7,0.2-1.5,0.3-2.2,0.5c-0.1,0.1-0.1,0.3-0.2,0.4
	c0.1,0.1,0.3,0.1,0.5,0.2c0.6-0.1,1.2-0.3,1.7-0.4c0,0.6,0.2,1,0.8,1.3c0.8,0.3,1.4,0,1.8-1c0.2-0.5,0.4-1,0.6-1.5
	c-1.4-0.5-2.8-1-4.2-1.5C82.2,61.4,82.2,61.6,82.1,61.8 M84,63.6c0.1-0.3,0.2-0.6,0.3-0.9c0.4,0.2,0.9,0.3,1.3,0.5
	c-0.1,0.3-0.2,0.6-0.3,0.9c-0.2,0.4-0.5,0.7-1,0.5C83.9,64.4,83.8,64,84,63.6"/>
<path d="M38.1,82.7c-0.2,0.6-0.5,1.2-0.7,1.8c-0.6-0.2-1.2-0.5-1.8-0.7c0.2-0.6,0.5-1.2,0.7-1.8c-0.2-0.1-0.4-0.2-0.6-0.3
	c-0.6,1.4-1.1,2.7-1.7,4.1c0.2,0.1,0.4,0.2,0.6,0.3c0.2-0.6,0.5-1.2,0.7-1.7c0.6,0.2,1.2,0.5,1.8,0.7c-0.2,0.6-0.4,1.2-0.7,1.7
	c0.2,0.1,0.4,0.2,0.7,0.2c0.5-1.4,1-2.8,1.5-4.1C38.5,82.8,38.3,82.7,38.1,82.7"/>
<path d="M16.1,58.9l-3.3,0.8c0.5-0.4,1-1,1.5-1.4c0-0.2-0.1-0.4-0.1-0.6c-0.6-0.2-1.3-0.4-1.9-0.6c1.1-0.2,3.3-0.7,3.3-0.7
	c0-0.2-0.1-0.5-0.1-0.6c0,0-2.9,0.6-4.3,0.9c0,0.2,0.1,0.5,0.1,0.8l2.3,0.7c-0.6,0.5-1.2,1.1-1.8,1.6c0.1,0.2,0.1,0.5,0.2,0.7
	l4.3-1.1C16.2,59.4,16.2,59.1,16.1,58.9"/>
<path d="M82.9,67.6c0.2,0.1,0.6,0.3,0.8,0.4c0.1-0.2,0.2-0.5,0.4-0.7c-0.2-0.1-0.6-0.3-0.8-0.4C83.1,67.1,83,67.4,82.9,67.6"/>
<path d="M81.7,66.1c-0.2-0.1-0.6-0.3-0.8-0.4c-0.1,0.2-0.2,0.4-0.3,0.6c0.2,0.1,0.6,0.3,0.8,0.4C81.5,66.6,81.6,66.4,81.7,66.1"/>
<path d="M53.2,87.5c0,0.3,0.1,0.6,0.1,0.9c0.3,0,0.5,0,0.8-0.1c0-0.3-0.1-0.6-0.1-0.9C53.7,87.5,53.5,87.5,53.2,87.5"/>
<path d="M53.7,84.8c-0.2,0-0.5,0-0.7,0.1c0,0.3,0.1,0.6,0.1,0.9c0.2,0,0.5,0,0.7-0.1C53.8,85.5,53.7,85.1,53.7,84.8"/>
<path d="M83.8,37.6c-0.4,0-0.6,0.2-0.7,0.5c-0.3,0.1-0.5,0.3-0.7,0.6l0,0c0.2,0,0.5-0.1,0.7-0.1c0,0,0.1,0.1,0.3,0.1
	c0,0.2,0,0.5,0.1,0.7c0.2,0.4,0.7,0.7,1.3,0.8c0,0.1,0,0.3,0.1,0.4l-0.1,0.4c-0.3,0.2-0.5,0.1-0.7,0.2c-0.1,0.1-0.2,0.2-0.2,0.2
	c0.4,0,0.5-0.1,0.8-0.1c0.2,0,0.3,0,0.4,0.1h0.2c0,0,0-0.1-0.1-0.2c-0.1,0-0.2-0.1-0.2-0.2c0-0.2,0.1-0.4,0.2-0.6l0.1,0.3
	c0,0,0.1-0.1,0.2-0.2c0.1-0.1,0-0.3,0-0.4c-0.6-0.2-1.3-0.5-1.5-1c0.8,0.6,1.7,0.9,2.7,0.9c0.1,0,0.2-0.2,0.3-0.3
	c-0.4,0-0.8,0-1-0.1l0-0.1c0.5,0,0.9,0,1.2-0.1c0.1-0.2,0.1-0.5,0.1-0.6c-0.2,0.1-0.6,0.3-1,0.3c-0.7,0-1-0.9-2-1
	C84.3,37.9,84.1,37.6,83.8,37.6"/>
<path d="M12.7,38.6c0,0,0.1,0.1,0.3,0.1c0,0.2,0,0.5,0.1,0.7c0.2,0.4,0.7,0.7,1.3,0.8c0,0.1,0,0.3,0.1,0.4l-0.1,0.4
	c-0.3,0.2-0.5,0.1-0.7,0.2c-0.1,0.1-0.2,0.2-0.2,0.2c0.4,0,0.5-0.1,0.8-0.1c0.2,0,0.3,0,0.4,0.1H15c0,0,0-0.1-0.1-0.2
	c-0.1,0-0.2-0.1-0.2-0.2c0-0.2,0.1-0.4,0.2-0.6l0.1,0.3c0,0,0.1-0.1,0.2-0.2c0.1-0.1,0-0.3,0-0.4c-0.6-0.2-1.3-0.5-1.5-1
	c0.8,0.6,1.7,0.9,2.7,0.9c0.1,0,0.2-0.2,0.3-0.3c-0.4,0-0.8,0-1-0.1l0-0.1c0.5,0,0.9,0,1.2-0.1c0.1-0.2,0.1-0.5,0.1-0.6
	c-0.2,0.1-0.6,0.3-1,0.3c-0.7,0-1-0.9-2-1c-0.1-0.3-0.3-0.6-0.6-0.6c-0.4,0-0.6,0.2-0.7,0.5c-0.3,0.1-0.5,0.3-0.7,0.6l0,0
	C12.1,38.7,12.5,38.6,12.7,38.6"/>
<path d="M69.2,78.5c0.1,0.2,0.2,0.3,0.4,0.5c0.5-0.3,0.9-0.7,1.4-1c0.8,1,1.5,2,2.3,3c0.2-0.1,0.4-0.3,0.6-0.4
	c-0.9-1.2-1.8-2.3-2.7-3.5C70.5,77.6,69.8,78.1,69.2,78.5"/>
<path d="M68.2,79.2c0.3,0.5,0.6,1,1,1.5c-0.3,0.2-0.5,0.3-0.8,0.5c-0.8,0.5-1,1.2-0.6,1.9c0.5,0.8,1.1,0.8,2,0.3
	c0.5-0.3,0.9-0.6,1.4-0.9c-0.8-1.2-1.6-2.5-2.4-3.7C68.6,78.9,68.4,79.1,68.2,79.2 M70.2,82.4c-0.3,0.2-0.5,0.3-0.8,0.5
	c-0.4,0.2-0.8,0.3-1-0.2c-0.3-0.5-0.1-0.8,0.3-1c0.3-0.2,0.5-0.3,0.8-0.5C69.7,81.6,70,82,70.2,82.4"/>
<path d="M66.6,84.4c-0.6-1.1-1.1-2.3-1.7-3.4c-0.2,0.1-0.4,0.2-0.6,0.3c0.5,1.1,1.1,2.3,1.6,3.4c-0.4,0.2-0.8,0.4-1.2,0.5l0.3,0.5
	c1-0.4,1.9-0.9,3-1.4c-0.1-0.2-0.2-0.4-0.3-0.5C67.4,84.1,67,84.3,66.6,84.4"/>
<path d="M26.5,27.3c-1.5,1.5-2.8,3.1-3.9,4.8c-1.2,1.7-2.1,3.6-2.9,5.5c-0.8,2-1.4,4-1.9,6.1c-0.4,2.1-0.6,4.3-0.6,6.5
	s0.2,4.4,0.7,6.5c0.4,2.1,1.1,4.1,1.9,6.1c0.8,1.9,1.8,3.8,3,5.5c1.2,1.7,2.5,3.3,4,4.8c1.5,1.5,3.1,2.8,4.8,3.9
	c1.7,1.2,3.6,2.1,5.5,2.9c2,0.8,4,1.4,6.1,1.8c2.1,0.4,4.2,0.6,6.3,0.6h0.2c2.2,0,4.4-0.2,6.5-0.7c2.1-0.4,4.1-1.1,6.1-1.9
	c1.9-0.8,3.8-1.8,5.5-3c1.7-1.2,3.3-2.5,4.8-4c1.5-1.5,2.8-3.1,3.9-4.8c1.2-1.7,2.2-3.6,2.9-5.5c0.8-2,1.4-4,1.9-6.1
	c0.4-2.1,0.6-4.3,0.6-6.5c0-2.2-0.2-4.4-0.7-6.5c-0.4-2.1-1.1-4.1-1.9-6.1c-0.8-1.9-1.8-3.8-3-5.5c-1.2-1.7-2.5-3.3-4-4.8
	c-1.5-1.5-3.1-2.8-4.8-3.9c-1.7-1.2-3.6-2.1-5.5-3c-2-0.8-4-1.4-6.1-1.8c-2.1-0.4-4.3-0.6-6.5-0.6c-2.2,0-4.4,0.2-6.5,0.7
	c-2.1,0.4-4.1,1.1-6.1,1.9c-1.9,0.8-3.8,1.8-5.5,3C29.6,24.5,28,25.8,26.5,27.3 M37,20.9c1.9-0.8,3.9-1.4,5.9-1.9
	c2.1-0.4,4.2-0.7,6.4-0.7h0.2c2.1,0,4.2,0.2,6.2,0.6c2,0.4,4,1,5.9,1.8c1.9,0.8,3.7,1.8,5.4,2.9c1.7,1.1,3.3,2.4,4.7,3.8
	c1.4,1.4,2.7,3,3.9,4.7c1.2,1.7,2.1,3.5,2.9,5.4c0.8,1.9,1.4,3.9,1.9,5.9c0.4,2.1,0.7,4.2,0.7,6.4c0,2.1-0.2,4.3-0.6,6.4
	c-0.4,2-1,4-1.8,5.9c-0.8,1.9-1.8,3.7-2.9,5.4c-1.1,1.7-2.4,3.3-3.8,4.7c-1.4,1.4-3,2.7-4.7,3.9c-1.7,1.2-3.5,2.1-5.4,2.9
	C60,79.9,58.1,80.5,56,81c-2.1,0.4-4.2,0.7-6.4,0.7c-2.1,0-4.3-0.2-6.4-0.6c-2-0.4-4-1-5.9-1.8c-1.9-0.8-3.7-1.8-5.4-2.9
	c-1.7-1.1-3.3-2.4-4.7-3.8c-1.4-1.4-2.7-3-3.9-4.7c-1.1-1.7-2.1-3.5-2.9-5.4c-0.8-1.9-1.4-3.9-1.9-5.9c-0.4-2.1-0.7-4.2-0.7-6.4
	c0-2.1,0.2-4.3,0.6-6.4c0.4-2,1-4,1.8-5.9c0.8-1.9,1.8-3.7,2.9-5.4c1.1-1.7,2.4-3.3,3.8-4.7c1.4-1.4,3-2.7,4.7-3.9
	C33.3,22.7,35.1,21.7,37,20.9"/>
<path d="M11,66.5c1.1,2.5,2.4,4.9,3.9,7.1c1.5,2.2,3.2,4.3,5.1,6.2c1.9,1.9,4,3.6,6.2,5.1c2.2,1.5,4.6,2.8,7.1,3.8
	c2.5,1.1,5.2,1.9,7.9,2.4c2.7,0.5,5.4,0.8,8.2,0.8c0.1,0,0.1,0,0.2,0c2.8,0,5.7-0.3,8.4-0.9c2.7-0.6,5.3-1.4,7.8-2.5
	c2.5-1.1,4.9-2.4,7.1-3.9c2.2-1.5,4.3-3.2,6.2-5.1c1.9-1.9,3.6-4,5.1-6.2c1.5-2.2,2.8-4.6,3.8-7.1c1.1-2.5,1.9-5.2,2.4-7.9
	c0.5-2.8,0.8-5.6,0.8-8.4c0-2.8-0.3-5.7-0.9-8.4c-0.6-2.7-1.4-5.3-2.5-7.8c-1.1-2.5-2.4-4.9-3.9-7.1c-1.5-2.2-3.2-4.3-5.1-6.2
	c-1.9-1.9-4-3.6-6.2-5.1c-2.2-1.5-4.6-2.8-7.1-3.8C63,10.3,60.4,9.5,57.7,9c-2.8-0.5-5.6-0.8-8.4-0.8c-2.8,0-5.7,0.3-8.4,0.9
	c-2.7,0.6-5.3,1.4-7.8,2.5c-2.5,1.1-4.9,2.4-7.1,3.9c-2.2,1.5-4.3,3.2-6.2,5.1c-1.9,1.9-3.6,4-5.1,6.2c-1.5,2.2-2.8,4.6-3.8,7.1
	c-1.1,2.5-1.9,5.2-2.4,7.9c-0.6,2.8-0.8,5.6-0.8,8.4c0,2.8,0.3,5.7,0.9,8.4C9.1,61.3,9.9,64,11,66.5 M9.1,41.9
	c0.5-2.6,1.3-5.2,2.4-7.7c1-2.4,2.3-4.8,3.8-7c1.5-2.2,3.1-4.2,5-6.1c1.9-1.9,3.9-3.6,6.1-5.1c2.2-1.5,4.5-2.8,7-3.8
	c2.5-1.1,5.1-1.9,7.7-2.4c2.7-0.6,5.5-0.9,8.3-0.9c0.1,0,0.1,0,0.2,0c2.7,0,5.4,0.3,8.1,0.8c2.6,0.5,5.2,1.3,7.7,2.4
	c2.4,1,4.8,2.3,7,3.8c2.2,1.5,4.2,3.1,6.1,5c1.9,1.9,3.6,3.9,5.1,6.1c1.5,2.2,2.8,4.5,3.8,7c1.1,2.5,1.9,5.1,2.4,7.7
	c0.6,2.7,0.9,5.5,0.9,8.3c0,2.8-0.3,5.6-0.8,8.3c-0.5,2.6-1.3,5.2-2.4,7.7c-1,2.4-2.3,4.8-3.8,7c-1.5,2.2-3.1,4.2-5,6.1
	c-1.9,1.9-3.9,3.6-6.1,5.1c-2.2,1.5-4.5,2.8-7,3.8c-2.5,1.1-5.1,1.9-7.7,2.4c-2.7,0.6-5.5,0.9-8.3,0.9c-2.8,0-5.6-0.3-8.3-0.8
	c-2.6-0.5-5.2-1.3-7.7-2.4c-2.4-1-4.8-2.3-7-3.8c-2.2-1.5-4.2-3.1-6.1-5c-1.9-1.9-3.6-3.9-5.1-6.1c-1.5-2.2-2.8-4.5-3.8-7
	c-1.1-2.5-1.9-5.1-2.4-7.7c-0.6-2.7-0.9-5.5-0.9-8.3C8.3,47.4,8.6,44.6,9.1,41.9"/>
<path d="M44.1,53.5c1.9,4.6,4.7,8.7,10.6,10.1c0,0,0.3-0.4,0.5-0.7c-4.7-1.4-7.1-5.1-8.9-9.3C46,53.3,44.6,53.1,44.1,53.5"/>
<path d="M60.9,39L60.9,39c-1.4,0.4-2.6,1.3-3.6,2.7c0.4,0.2,1,0.4,1.3,0.4C59.2,40.8,60,39.8,60.9,39"/>
<path d="M60.2,62.8c0.4,0,1-0.1,1.4-0.3c-0.1-1.1-0.6-2-1.2-2.6c-0.2,0.7-0.6,1.5-0.6,1.5C60,61.8,60.1,62.3,60.2,62.8"/>
<path d="M55.4,61.5c-0.2-0.2-0.3-0.5-0.3-0.8c0-0.7,0.5-1.3,1.8-1.3c0.2-0.4,0.2-1,0.2-1c-1.8-0.1-2.9,0.6-2.9,1.8
	C54.2,61,54.8,61.5,55.4,61.5"/>
<path d="M49.6,53.7c0.3,0.4,0.4,0.4,0.7,0.6c0.4-0.5,0.8-0.9,1.4-1.2c0,0,0.3-0.6,0.4-1c-0.4,0.1-0.8,0.3-1.1,0.6l3.5-8.9
	c1.6,0.6,2.8,1,4.3,1c3.7,0,5.3-1.8,5.3-3.5c0-0.7-0.4-1.4-0.8-1.6c0.4,1.9-1,3.2-3.6,3.2c-2.3,0-5.2-1.6-5.2-1.6
	C53.9,43.4,50.1,52.7,49.6,53.7"/>
<path d="M42.4,42.1c0.2,0.3,0.7,1.2,1,1.9c0.3-0.1,0.9-0.3,0.9-0.3l3.5,8.9c-1.1-0.7-2.4-1.1-3.7-1.1c-3.2,0-5.4,2.4-5.4,5.9
	c0,1.6,0.5,3.2,1.7,5.2c0,0,1,0,2.1-0.3c-1-1.8-1.6-3.5-1.6-5.3c0-2.8,1.5-4.6,3.9-4.6c1.6,0,2.9,0.6,3.8,1.8
	c0.3-0.2,0.4-0.3,0.7-0.6c-0.5-1-4.2-10.3-4.7-12.5C44.4,41.2,43.5,41.6,42.4,42.1"/>
<path d="M50.1,68.6c0,0,0.9,0.4,1.6,0.4c5.7-2.6,8.3-8.3,8.3-11.5c0-3.5-1.1-5.2-4.1-5.8c-0.2,0.5-0.3,1-0.3,1
	c1.4,0.3,2.3,1.4,2.3,4.1C57.9,61.8,54.2,66.4,50.1,68.6"/>
<path d="M67.9,58c0-2.6-1.9-4-3.9-4c-1.8,0-2.4,1-2.4,1.9c0,1.1,0.9,1.6,1.6,1.7c-0.3-0.3-0.6-0.8-0.6-1.4S63,55,64,55
	c1,0,2.3,1,2.3,3.2c0,2.5-1.9,5.3-6.9,5.3h-0.4c-0.1,0.3-0.4,0.7-0.4,0.7h1C63.6,64.1,67.9,61.8,67.9,58"/>
<path d="M47.2,64.9c0,0,1.3,1.2,2,1.5c0.7-0.3,2-1.5,2-1.5s-1.2-0.7-2-1.5C48.5,64.1,47.2,64.9,47.2,64.9"/>
<path d="M46.6,69.7c-0.4,0-0.7,0-1.1,0c-4.3,0-7.1-3.1-7.1-6c0-0.9,0.1-1.7,0.4-2.3c-0.3-0.5-0.7-1.4-0.7-1.4
	c-0.7,0.8-1.2,1.9-1.2,3.3c0,4.3,3.8,7.1,8.3,7.1c0.8,0,2-0.1,2.7-0.2C47.5,70.1,46.6,69.7,46.6,69.7"/>
<path d="M60.1,64.8c-0.6,2.6-3.3,5-7,5c-2.3,0-4.8-1.1-6.9-2.8c-0.9-0.7-1.8-1.6-2.6-2.6c-0.8,0.2-2,0.3-2,0.3
	c2.4,3.1,6.3,5.7,11.9,5.7c4,0,7.4-2.3,8.1-5.8C61,64.7,60.1,64.8,60.1,64.8"/>
<path d="M50.1,38.8c-2.1,1.1-3.4,2.5-3.4,4.3c0,1.8,1.3,2.9,2.8,2.9c1.4,0,2.6-1.2,2.6-2.7c0-1-0.3-1.9-0.9-2.6
	c-0.7,0.1-1.1,0.4-1.1,0.4c0.8,0.6,1.3,1.3,1.3,2.2c0,1.2-0.8,2.1-1.9,2.1c-1.1,0-1.9-0.9-1.9-2.1c0-1.7,1.6-2.8,3.8-3.5
	c3.9-1.4,7.1-1.2,12.5-1.2c5,0,7.4-3.8,7.6-5.5c-3.8,4.3-8.9,3.3-15.8,4.3C53.3,37.5,51,38.3,50.1,38.8"/>
<path d="M30.6,58c0,2.9,2.6,5.1,5.7,5.9c0-0.3,0-0.8,0-0.8c-2.9-0.8-4.1-3-4.1-4.9c0-2.2,1.3-3.2,2.3-3.2s1.3,0.6,1.3,1.1
	s-0.3,1.1-0.6,1.4c0.7,0,1.6-0.5,1.6-1.7c0-0.9-0.6-1.9-2.4-1.9C32.5,53.9,30.6,55.4,30.6,58"/>
<path d="M34.7,41.2c0,1.7,1.6,3.5,5.3,3.5h0.3c0,0-0.4-1.3-0.7-1.9h-0.4c-2.7,0-4-1.4-3.6-3.2C35.1,39.7,34.7,40.4,34.7,41.2"/>
<path d="M39,63.4c0,0,0,0.6,0,0.7c4.2,0,7.2-1,9.5-2.6c-0.5-0.4-1-1.1-1-1.1c-2,1.8-4.6,2.9-8.3,2.9H39z"/>
<path d="M44.4,60.2c0-1.2-1.2-1.9-2.9-1.8c0,0,0,0.6,0.2,1c1.3,0,1.8,0.7,1.8,1.3c0,0.3-0.1,0.6-0.3,0.8
	C43.9,61.5,44.4,61,44.4,60.2"/>
<path d="M55.4,44.8c-0.7,1.8-1.5,4.1-2.3,6.1c-0.9,2.5-2,5-3.4,7.1c0.3,0.4,0.8,1,1.2,1.4c2.2-2.4,3.8-6.1,4.9-9.8
	c0.5-0.5,1.1-0.8,2-0.8c1.1,0,1.6,0.7,1.7,2.2h0.4c0.4-1.8,1.1-3.4,2.1-5.3c0,0-0.3-0.2-0.6-0.2c-1.3,2.1-3,1.8-5.2,3.2
	c0.4-1.1,0.7-2.4,1.1-3.5C56.6,45.2,56,45,55.4,44.8"/>
<path d="M37.6,38.9L37.6,38.9c2.4,2.2,3.6,5.8,4.8,9.8c-2.2-1.4-3.9-1-5.2-3.2c-0.3,0-0.6,0.2-0.6,0.2c1,1.9,1.7,3.5,2.1,5.3h0.4
	c0-1.5,0.5-2.2,1.7-2.2c0.8,0,1.4,0.3,2,0.8c0.1,0.4,0.3,0.9,0.4,1.4c0.9-0.2,2.3,0,2.3,0C43.4,45.6,41.9,40.4,37.6,38.9"/>
<path d="M35.1,38.5c5.3,0,8.5-0.1,12.4,1.3c0,0,0.8-0.8,1.4-1.1c-0.9-0.4-3.2-1.3-5.6-1.5c-6.9-0.9-12,0.1-15.8-4.3
	C27.7,34.7,30.2,38.5,35.1,38.5"/>
<path d="M51,24.2c0,0.2,0.2,0.4,0.4,0.4c0.2,0,0.4-0.2,0.4-0.4c0-0.2-0.2-0.4-0.4-0.4C51.1,23.8,51,24,51,24.2"/>
<path d="M53.2,24.6c0.3,0,0.5-0.2,0.5-0.5c0-0.3-0.2-0.5-0.5-0.5c-0.3,0-0.5,0.2-0.5,0.5C52.7,24.4,52.9,24.6,53.2,24.6"/>
<path d="M52.2,24.7c0.2,0,0.4-0.2,0.4-0.4c0-0.2-0.2-0.4-0.4-0.4c-0.2,0-0.4,0.2-0.4,0.4C51.9,24.5,52,24.7,52.2,24.7"/>
<path d="M47.6,24.5c0.2,0,0.4-0.2,0.4-0.4c0-0.2-0.2-0.4-0.4-0.4c-0.2,0-0.4,0.2-0.4,0.4C47.3,24.4,47.4,24.5,47.6,24.5"/>
<path d="M46.7,24.7c0.2,0,0.4-0.2,0.4-0.4c0-0.2-0.2-0.4-0.4-0.4c-0.2,0-0.4,0.2-0.4,0.4C46.4,24.5,46.5,24.7,46.7,24.7"/>
<path d="M45.8,24.6c0.3,0,0.5-0.2,0.5-0.5c0-0.3-0.2-0.5-0.5-0.5c-0.3,0-0.5,0.2-0.5,0.5C45.3,24.4,45.5,24.6,45.8,24.6"/>
<path d="M56.8,28.4c-0.2,0-0.4,0.2-0.4,0.4c0,0.2,0.2,0.4,0.4,0.4c0.2,0,0.4-0.2,0.4-0.4C57.2,28.5,57,28.4,56.8,28.4"/>
<path d="M58.5,26.9c0-0.3-0.2-0.5-0.5-0.5c-0.3,0-0.5,0.2-0.5,0.5c0,0.3,0.2,0.5,0.5,0.5C58.3,27.4,58.5,27.2,58.5,26.9"/>
<path d="M57.4,28.2c0.2,0,0.4-0.2,0.4-0.4c0-0.2-0.2-0.4-0.4-0.4c-0.2,0-0.4,0.2-0.4,0.4C57.1,28.1,57.2,28.2,57.4,28.2"/>
<path d="M56.3,36.4v-1.1l0,0c-0.9-0.2-3.4-0.5-6.8-0.5c-3.4,0-5.9,0.4-6.8,0.5l0,0v1.1l0,0c0.9-0.2,3.4-0.5,6.8-0.5
	S55.4,36.2,56.3,36.4L56.3,36.4z"/>
<path d="M40.9,26.4c-0.3,0-0.5,0.2-0.5,0.5s0.2,0.5,0.5,0.5c0.3,0,0.5-0.2,0.5-0.5S41.2,26.4,40.9,26.4"/>
<path d="M43.7,28.1L43.7,28.1l0.1,0.5l0,0c0,0,0.4-0.3,1.1-0.6c0.7-0.3,1.7-0.6,3.2-0.6h0.1L48,26.9h0C45.4,26.9,44,27.8,43.7,28.1"
	/>
<path d="M55.2,28.6l0.2-0.4l0,0c-0.4-0.3-1.8-1.1-4.3-1.1h0l-0.2,0.5h0.1C53.6,27.4,55.1,28.5,55.2,28.6L55.2,28.6z"/>
<path d="M57.9,30.7L57.9,30.7l0.4-0.3l0,0c0-0.1-0.5-0.8-1-1.2l0,0l-0.3,0.3C57.5,30,57.9,30.7,57.9,30.7"/>
<path d="M41.7,29.3c-0.5,0.4-1,1.1-1,1.2l0,0l0.3,0.3l0-0.1c0,0,0.4-0.7,1-1.2L41.7,29.3L41.7,29.3z"/>
<path d="M60.8,26.4c0.3,0,0.5-0.2,0.5-0.5c0-0.3-0.2-0.5-0.5-0.5c-0.3,0-0.5,0.2-0.5,0.5C60.3,26.2,60.5,26.4,60.8,26.4"/>
<path d="M59.6,25.9c0.3,0,0.5-0.2,0.5-0.5c0-0.3-0.2-0.5-0.5-0.5c-0.3,0-0.5,0.2-0.5,0.5C59.1,25.7,59.3,25.9,59.6,25.9"/>
<path d="M61.4,30c0.3,0,0.5-0.2,0.5-0.5s-0.2-0.5-0.5-0.5c-0.3,0-0.5,0.2-0.5,0.5S61.2,30,61.4,30"/>
<path d="M38.2,26.4c0.3,0,0.5-0.2,0.5-0.5c0-0.3-0.2-0.5-0.5-0.5c-0.3,0-0.5,0.2-0.5,0.5C37.8,26.2,38,26.4,38.2,26.4"/>
<path d="M37.4,27.5c0.3,0,0.5-0.3,0.5-0.6c0-0.3-0.2-0.5-0.5-0.5c-0.3,0-0.6,0.2-0.6,0.5C36.9,27.2,37.1,27.5,37.4,27.5"/>
<path d="M37.2,28.9c0.3,0,0.5-0.3,0.5-0.6c0-0.3-0.2-0.5-0.5-0.5c-0.3,0-0.6,0.2-0.6,0.5C36.6,28.6,36.9,28.9,37.2,28.9"/>
<path d="M39.4,25.9c0.3,0,0.5-0.2,0.5-0.5c0-0.3-0.2-0.5-0.5-0.5c-0.3,0-0.5,0.2-0.5,0.5C38.9,25.7,39.1,25.9,39.4,25.9"/>
<path d="M37.6,29.1c-0.3,0-0.5,0.2-0.5,0.5s0.2,0.5,0.5,0.5c0.3,0,0.5-0.2,0.5-0.5S37.8,29.1,37.6,29.1"/>
<path d="M38.3,30.7c0.2,0,0.4-0.2,0.4-0.4c0-0.2-0.2-0.4-0.4-0.4c-0.2,0-0.4,0.2-0.4,0.4C37.9,30.5,38.1,30.7,38.3,30.7"/>
<path d="M41.4,25.8c0,0.8,0.5,1.5,1,2.1c0.3,0.4,0.6,0.8,0.7,1.2c-0.1,0-0.2,0.1-0.2,0.2c0,0.1,0,0.1,0,0.2l0.1,0.2
	c0,0,0.1,0.1,0,0.1c0,0,0,0,0,0.1c-0.1,0-0.1,0-0.1-0.1l-0.1-0.1c0,0-0.1-0.1-0.1-0.1c-0.1,0-0.1,0-0.1,0.1L42.2,30
	c0,0-0.1,0.1-0.1,0.2c0,0.1,0,0.1,0.1,0.1l0.1,0.1c0.2,0.1,0.2,0.1,0.1,0.1c0,0-0.1,0-0.3,0c-0.1,0-0.2,0-0.2,0c0,0-0.1,0.1-0.1,0.2
	l0,0.4c0,0.1,0,0.1,0.1,0.1c0,0,0.1,0.1,0.2,0c0.1,0,0.2-0.1,0.3-0.1c0,0,0,0,0,0c0,0,0,0.1-0.2,0.2c0,0-0.1,0.1-0.1,0.1
	c0,0.1,0,0.1,0.1,0.2l0.2,0.2c0.1,0.1,0.1,0.1,0.2,0.1s0.1,0,0.2-0.1c0.1-0.1,0.1-0.1,0.2-0.2c0-0.1,0.1-0.1,0.1-0.2c0,0,0,0,0.1,0
	c0,0,0.1,0.1,0.1,0.1c0.1,0.3,0.1,0.5,0,0.6c-0.1,0.2-0.4,0.3-0.7,0.3c-0.3,0-0.5-0.1-0.6-0.3c0-0.1,0-0.1,0-0.2l0,0
	c0.1-0.1,0.2-0.3-0.1-0.4L42,31.6c-0.2-0.1-0.3-0.1-0.4,0c-0.1,0.2-0.2,0.2-0.3,0.1c-0.1-0.1-0.1-0.2-0.1-0.3c0-0.1,0-0.1,0-0.2
	c0-0.1,0-0.2-0.1-0.3c-0.1-0.1-0.3,0-0.5,0c-0.2-0.2-0.4-0.4-0.6-0.6c-0.7-0.6-1.4-1.3-1.4-2.2c0-0.7,0.4-1,0.7-1.2
	c0.4-0.2,0.7-0.3,0.8-0.3h0.1l-0.2-0.5l0,0c-0.3,0-0.8,0.2-1.2,0.5c-0.3,0.3-0.7,0.7-0.7,1.5c0,1.1,0.8,1.8,1.5,2.4l0,0
	c0.2,0.2,0.5,0.5,0.7,0.7h-0.3c-0.6,0-0.8,0.4-0.8,0.4l0,0h0.1c0.7,0,1.6,0.3,2.3,0.8c0.8,0.5,1.2,1.2,1.2,1.8v0l0,0
	c0.9-0.2,3.4-0.5,6.8-0.5s5.9,0.3,6.8,0.5l0,0v0c0-0.6,0.4-1.2,1.2-1.8c0.7-0.5,1.6-0.8,2.3-0.8h0.1l0,0c0,0-0.2-0.4-0.8-0.4h-0.3
	c0.2-0.2,0.5-0.5,0.7-0.7l0,0c0.7-0.6,1.5-1.3,1.5-2.4c0-0.7-0.4-1.2-0.7-1.5c-0.4-0.3-0.9-0.5-1.2-0.5l0,0l-0.2,0.5h0.1
	c0.1,0,0.4,0.1,0.8,0.3c0.3,0.2,0.7,0.6,0.7,1.2c0,0.9-0.8,1.6-1.4,2.2c-0.2,0.2-0.5,0.4-0.6,0.6c-0.2-0.1-0.4-0.1-0.5,0
	c-0.1,0-0.1,0.1-0.1,0.3c0,0.1,0,0.1,0,0.2c0,0.2,0,0.3-0.1,0.3c-0.1,0-0.2,0-0.3-0.1c-0.1-0.1-0.2-0.1-0.4,0l-0.2,0.1
	c-0.2,0.1-0.1,0.3-0.1,0.4l0,0c0,0.1,0,0.1,0,0.2c-0.1,0.1-0.3,0.3-0.6,0.3c-0.3,0-0.6-0.1-0.7-0.3c-0.1-0.2-0.1-0.4,0-0.6
	c0-0.1,0.1-0.1,0.1-0.1c0,0,0,0,0.1,0c0.1,0.1,0.1,0.1,0.1,0.2c0,0.1,0.1,0.1,0.1,0.2C56,32,56,32,56.1,32s0.1,0,0.2-0.1l0.2-0.2
	c0.1-0.1,0.1-0.1,0.1-0.2c0,0,0-0.1-0.1-0.1c-0.1-0.1-0.2-0.1-0.2-0.2c0,0,0,0,0,0c0,0,0.2,0,0.3,0.1c0.1,0,0.2,0,0.2,0
	c0,0,0.1-0.1,0.1-0.1l0-0.4c0-0.1,0-0.1-0.1-0.2c0,0-0.1-0.1-0.2,0c-0.2,0.1-0.3,0.1-0.3,0c0,0,0-0.1,0.1-0.1l0.1-0.1
	c0.1,0,0.1-0.1,0.1-0.1c0-0.1,0-0.1-0.1-0.2l-0.4-0.4c0,0-0.1-0.1-0.1-0.1c-0.1,0-0.1,0-0.1,0.1l-0.1,0.1c0,0-0.1,0.1-0.1,0.1
	c0,0,0,0,0-0.1c0,0,0-0.1,0-0.1l0.1-0.2c0,0,0-0.1,0-0.2c0-0.1-0.1-0.1-0.2-0.2c0.1-0.4,0.4-0.8,0.7-1.2c0.4-0.6,1-1.3,1-2.1
	c0-0.7-0.4-1.4-1.6-1.4c-0.6,0-1.2,0.2-1.8,0.4c-0.6,0.2-1.2,0.3-1.7,0.3c-0.7,0-1.1-0.1-2.4-1l0,0L50,24.2l0,0
	c0.2,0.2,1.2,1.3,0.2,2.9l0,0l0.1,0.1l0,0c0.6-0.6,1-1.3,0.5-2.3c0.5,0.5,1.1,0.6,1.7,0.6c0.7,0,1.3-0.2,1.9-0.4
	c0.5-0.1,1-0.3,1.3-0.3c0.8,0,1.1,0.3,1.1,0.9c0,0.6-0.4,1.2-0.8,1.8c-0.3,0.5-0.6,0.9-0.7,1.3c-0.1,0-0.2,0-0.3,0.1
	c0,0-0.1,0.1-0.1,0.2l0,0.3c0,0,0,0.1,0,0.1c0,0,0,0-0.1,0c0,0-0.1,0-0.1-0.1l0-0.1c0-0.1,0-0.1-0.1-0.1c-0.1,0-0.1,0-0.2,0
	l-0.5,0.2c-0.1,0-0.1,0.1-0.1,0.1c0,0,0,0.1,0,0.1l0.2,0.2c0,0,0,0.1,0.1,0.1c0,0,0,0,0,0.1c0,0-0.1,0-0.2-0.1L54,29.9
	c-0.1,0-0.1,0-0.2,0c-0.1,0-0.1,0.1-0.1,0.1l-0.2,0.4c0,0.1,0,0.1,0,0.1c0,0,0.1,0.1,0.2,0.1l0.1,0c0.1,0,0.2,0.1,0.2,0.1
	c0,0,0,0,0,0c0,0,0,0-0.1,0.1l0,0c-0.1,0-0.1,0-0.1,0.1c0,0,0,0.1,0,0.2l0.1,0.4c0,0.1,0,0.1,0.1,0.2c0.1,0,0.1,0,0.2,0
	c0.1,0,0.2-0.1,0.3-0.1c0.1,0,0.1,0,0.2-0.1c0.1,0,0.1,0,0.1,0c0,0,0,0.1,0,0.1c-0.1,0.6-0.4,1-1,1c-0.6,0-0.8-0.5-0.9-0.7
	c0.1-0.1,0.3-0.2,0.3-0.4c0-0.3-0.2-0.5-0.5-0.5c-0.3,0-0.5,0.2-0.5,0.5c0,0.2,0.1,0.4,0.2,0.4c-0.1,0.3-0.4,0.8-1.1,0.8
	c-0.3,0-0.6-0.1-0.8-0.4c-0.2-0.2-0.4-0.5-0.4-0.8c0-0.2,0.1-0.3,0.1-0.3c0.1,0,0.1,0,0.2,0.1l0.4,0.4c0.1,0.1,0.3,0.1,0.4,0
	l0.3-0.3c0-0.1,0.1-0.1,0.1-0.2c0-0.1,0-0.1-0.1-0.1c0,0-0.1-0.1-0.1-0.1c0,0,0,0,0,0c0,0,0.2,0,0.3,0.1l0,0c0.1,0,0.1,0,0.2,0
	c0.1,0,0.1-0.1,0.1-0.2l0.1-0.7c0-0.1,0-0.2-0.1-0.2c0,0-0.1-0.1-0.2-0.1c-0.1,0-0.1,0-0.2,0c-0.1,0-0.2,0-0.2,0c0,0,0-0.1,0.2-0.1
	c0.1,0,0.1-0.1,0.1-0.1c0-0.1,0-0.1,0-0.2L51.6,29c0-0.1-0.1-0.1-0.2-0.1c-0.1,0-0.1,0-0.2,0l-0.6,0.3c-0.1,0.1-0.2,0.1-0.2,0
	c0,0,0-0.1,0-0.2l0.4-0.5c0-0.1,0.1-0.1,0.1-0.2c0-0.1-0.1-0.1-0.1-0.2l-0.3-0.2c-0.1-0.1-0.3-0.1-0.4,0c0,0,0,0,0,0.1
	C50,28.1,50,28.1,50,28.1c0,0,0,0,0,0c0,0,0-0.1,0-0.1c0-0.1,0.1-0.1,0.1-0.2c0-0.1,0-0.1,0-0.2c0-0.1-0.1-0.1-0.2-0.1h-0.7
	c-0.1,0-0.2,0-0.2,0.1c0,0.1-0.1,0.1,0,0.2c0,0.1,0.1,0.2,0.1,0.2c0,0.1,0,0.1,0,0.1c0,0,0,0,0,0c0,0-0.1,0-0.1-0.1c0,0,0,0,0-0.1
	c-0.1-0.1-0.2-0.1-0.4,0l-0.3,0.2c-0.1,0-0.1,0.1-0.1,0.2c0,0.1,0,0.1,0.1,0.2l0.4,0.5c0.1,0.1,0.1,0.2,0,0.2c0,0-0.1,0-0.2,0
	l-0.6-0.3c-0.1,0-0.1,0-0.2,0c-0.1,0-0.1,0.1-0.2,0.1l-0.2,0.4c0,0.1,0,0.1,0,0.2c0,0.1,0.1,0.1,0.1,0.1c0.1,0,0.2,0.1,0.1,0.1
	c0,0-0.1,0-0.2,0c-0.1,0-0.1,0-0.2,0c-0.1,0-0.1,0-0.2,0.1c-0.1,0.1-0.1,0.1-0.1,0.2l0.1,0.7c0,0.1,0.1,0.2,0.1,0.2
	c0.1,0,0.1,0,0.2,0l0,0c0.2-0.1,0.3-0.1,0.3-0.1c0,0,0,0,0,0c0,0-0.1,0.1-0.1,0.1c-0.1,0-0.1,0.1-0.1,0.1c0,0.1,0,0.1,0.1,0.2
	l0.3,0.3c0.1,0.1,0.2,0.1,0.4,0l0.4-0.4c0.1-0.1,0.1-0.1,0.2-0.1c0.1,0,0.1,0.2,0.1,0.3c0,0.3-0.1,0.5-0.4,0.8
	c-0.2,0.2-0.5,0.4-0.8,0.4c-0.6,0-0.9-0.4-1.1-0.8c0.1-0.1,0.2-0.3,0.2-0.4c0-0.3-0.2-0.5-0.5-0.5c-0.3,0-0.5,0.2-0.5,0.5
	c0,0.2,0.1,0.4,0.3,0.4c-0.1,0.2-0.3,0.7-0.9,0.7c-0.6,0-0.9-0.3-1-1c0,0,0-0.1,0-0.1c0,0,0.1,0,0.1,0c0,0,0.1,0,0.2,0.1
	c0.1,0,0.2,0.1,0.3,0.1c0.1,0,0.1,0,0.2,0c0.1,0,0.1-0.1,0.1-0.2l0.1-0.4c0-0.1,0-0.1,0-0.2c0,0-0.1-0.1-0.1-0.1l0,0
	c-0.1,0-0.1,0-0.1-0.1c0,0,0,0,0,0c0,0,0.1-0.1,0.2-0.1l0.1,0c0.1,0,0.1-0.1,0.2-0.1c0,0,0-0.1,0-0.1l-0.2-0.4
	c0-0.1-0.1-0.1-0.1-0.1c-0.1,0-0.1,0-0.2,0l-0.1,0.1C44.7,30,44.7,30,44.7,30c0,0,0-0.1,0-0.1l0.2-0.2c0,0,0-0.1,0-0.1
	c0-0.1-0.1-0.1-0.1-0.1l-0.5-0.2c-0.1,0-0.1,0-0.2,0c-0.1,0-0.1,0.1-0.1,0.1l0,0.1c0,0.1-0.1,0.1-0.1,0.1c0,0,0,0-0.1,0
	c0,0,0,0,0-0.1l0-0.3c0-0.1,0-0.1-0.1-0.2c-0.1-0.1-0.2-0.1-0.3-0.1c-0.1-0.4-0.4-0.8-0.7-1.3C42.4,27,42,26.4,42,25.9
	c0-0.6,0.4-0.9,1.1-0.9c0.4,0,0.8,0.1,1.3,0.3c0.6,0.2,1.3,0.4,2,0.4c0.6,0,1.1-0.2,1.5-0.4c-0.2,0.8,0.1,1.5,0.7,2.1l0,0l0.1-0.1
	l0,0c-0.9-1.6,0-2.7,0.2-2.9l0,0l-0.1-0.2l0,0c-1.3,0.9-1.7,1-2.4,1c-0.5,0-1.1-0.2-1.7-0.3c-0.6-0.2-1.2-0.4-1.8-0.4
	C41.8,24.4,41.4,25.1,41.4,25.8 M55.3,30.2c0.2,0,0.4,0.2,0.4,0.4s-0.2,0.4-0.4,0.4c-0.2,0-0.4-0.2-0.4-0.4
	C54.8,30.4,55,30.2,55.3,30.2 M49.5,29.4c0.3,0,0.6,0.3,0.6,0.6c0,0.3-0.3,0.6-0.6,0.6c-0.4,0-0.6-0.3-0.6-0.6
	C48.9,29.7,49.1,29.4,49.5,29.4 M43.7,30.2c0.2,0,0.4,0.2,0.4,0.4c0,0.2-0.2,0.4-0.4,0.4c-0.2,0-0.4-0.2-0.4-0.4
	S43.4,30.2,43.7,30.2"/>
<path d="M42.5,28.7c0-0.2-0.2-0.4-0.4-0.4c-0.2,0-0.4,0.2-0.4,0.4c0,0.2,0.2,0.4,0.4,0.4C42.4,29.1,42.5,28.9,42.5,28.7"/>
<path d="M41.5,27.5c-0.2,0-0.4,0.2-0.4,0.4c0,0.2,0.2,0.4,0.4,0.4c0.2,0,0.4-0.2,0.4-0.4C41.9,27.7,41.7,27.5,41.5,27.5"/>
<path d="M39.5,30.9c0-0.2-0.2-0.4-0.4-0.4c-0.2,0-0.4,0.2-0.4,0.4c0,0.2,0.2,0.4,0.4,0.4C39.3,31.3,39.5,31.1,39.5,30.9"/>
<path d="M60.7,30c-0.2,0-0.4,0.2-0.4,0.4c0,0.2,0.2,0.4,0.4,0.4c0.2,0,0.4-0.2,0.4-0.4C61,30.1,60.9,30,60.7,30"/>
<path d="M59.9,30.6c-0.2,0-0.4,0.2-0.4,0.4c0,0.2,0.2,0.4,0.4,0.4c0.2,0,0.4-0.2,0.4-0.4C60.2,30.7,60.1,30.6,59.9,30.6"/>
<path d="M61.3,28.3c0,0.3,0.3,0.6,0.6,0.6c0.3,0,0.5-0.3,0.5-0.6c0-0.3-0.2-0.5-0.5-0.5C61.5,27.8,61.3,28,61.3,28.3"/>
<path d="M61,26.9c0,0.3,0.3,0.6,0.6,0.6c0.3,0,0.5-0.3,0.5-0.6c0-0.3-0.2-0.5-0.5-0.5C61.3,26.4,61,26.6,61,26.9"/>
<path d="M56.8,24.1c0.3,0,0.5-0.3,0.5-0.6c0-0.3-0.2-0.5-0.5-0.5c-0.3,0-0.6,0.2-0.6,0.5C56.2,23.9,56.5,24.1,56.8,24.1"/>
<path d="M42.2,24.1c0.3,0,0.5-0.3,0.5-0.6c0-0.3-0.2-0.5-0.5-0.5c-0.3,0-0.6,0.2-0.6,0.5C41.7,23.9,41.9,24.1,42.2,24.1"/>
<path d="M57.9,24.9c0.3,0,0.5-0.3,0.5-0.6c0-0.3-0.2-0.5-0.5-0.5c-0.3,0-0.6,0.2-0.6,0.5C57.4,24.6,57.6,24.9,57.9,24.9"/>
<path d="M41,24.9c0.3,0,0.5-0.3,0.5-0.6c0-0.3-0.2-0.5-0.5-0.5c-0.3,0-0.6,0.2-0.6,0.5C40.5,24.6,40.7,24.9,41,24.9"/>
<path d="M54.3,24.2c0.3,0,0.5-0.2,0.5-0.5c0-0.3-0.2-0.5-0.5-0.5c-0.3,0-0.5,0.2-0.5,0.5C53.8,24,54,24.2,54.3,24.2"/>
<path d="M44.7,24.2c0.3,0,0.5-0.2,0.5-0.5c0-0.3-0.2-0.5-0.5-0.5c-0.3,0-0.5,0.2-0.5,0.5C44.2,24,44.4,24.2,44.7,24.2"/>
<path d="M43.5,24.1c0.3,0,0.5-0.2,0.5-0.5c0-0.3-0.2-0.5-0.5-0.5c-0.3,0-0.5,0.2-0.5,0.5C43.1,23.9,43.3,24.1,43.5,24.1"/>
<path d="M55.4,24.1c0.3,0,0.5-0.2,0.5-0.5c0-0.3-0.2-0.5-0.5-0.5c-0.3,0-0.5,0.2-0.5,0.5C55,23.9,55.2,24.1,55.4,24.1"/>
<path d="M40.6,26.2c0.3,0,0.5-0.3,0.5-0.6c0-0.3-0.2-0.5-0.5-0.5c-0.3,0-0.6,0.2-0.6,0.5C40.1,26,40.3,26.2,40.6,26.2"/>
<path d="M57.8,25.7c0,0.3,0.3,0.6,0.6,0.6c0.3,0,0.5-0.3,0.5-0.6c0-0.3-0.2-0.5-0.5-0.5C58.1,25.1,57.8,25.4,57.8,25.7"/>
<path d="M50,25.7c0-0.3-0.2-0.5-0.5-0.5c-0.3,0-0.6,0.2-0.6,0.5c0,0.3,0.3,0.6,0.6,0.6C49.8,26.2,50,26,50,25.7"/>
<path d="M49.8,24.5c0-0.2-0.2-0.4-0.4-0.4c-0.2,0-0.4,0.2-0.4,0.4c0,0.2,0.2,0.4,0.4,0.4C49.7,24.8,49.8,24.7,49.8,24.5"/>
<path d="M49.1,26.9c0,0.2,0.2,0.4,0.4,0.4c0.2,0,0.4-0.2,0.4-0.4c0-0.2-0.2-0.4-0.4-0.4C49.3,26.5,49.1,26.7,49.1,26.9"/>
<path d="M48.1,22h0.4v-0.4h0.3c0.1,0.2,0.2,0.3,0.4,0.4v0.3c-0.7,0.1-1.2,0.7-1.2,1.4c0.5-0.1,0.9-0.2,1.4-0.2
	c0.5,0,0.9,0.1,1.4,0.2c0-0.7-0.5-1.3-1.2-1.4V22c0.2-0.1,0.3-0.2,0.4-0.4h0.3V22h0.4v-0.4h0.4v-0.4h-0.4v-0.4h-0.4v0.4h-0.3
	c0,0,0,0,0,0c-0.1-0.2-0.2-0.3-0.4-0.4v-0.4h0.4v-0.4h-0.4v-0.5h-0.4v0.5h-0.4v0.4h0.4v0.4c-0.2,0.1-0.3,0.2-0.4,0.4c0,0,0,0,0,0
	h-0.3v-0.4h-0.4v0.4h-0.4v0.4h0.4V22z"/>
</svg>
